<?xml version="1.0" encoding="UTF-8"?>
<!-- original viewBox="0 0 17 14" -->
<svg width="24px" height="24px" viewBox="-6 -6 24 24" version="1.1" xmlns="http://www.w3.org/2000/svg" xmlns:xlink="http://www.w3.org/1999/xlink">
  <!-- Generator: Sketch 48.2 (47327) - http://www.bohemiancoding.com/sketch -->
  <desc>Created with Sketch.</desc>
  <defs></defs>
  <g id="Page-1" stroke="none" stroke-width="1" fill-rule="evenodd">
    <g id="13-Playground_LoggedIn_MyDatasets" transform="translate(-177.000000, -298.000000)">
      <g id="Group-7" transform="translate(177.000000, 298.000000)">
        <path d="M5.84415584,10.3896104 C3.31168831,10.3896104 1.2987013,8.37662338 1.2987013,5.84415584 C1.2987013,3.31168831 3.31168831,1.2987013 5.84415584,1.2987013 C8.37662338,1.2987013 10.3896104,3.31168831 10.3896104,5.84415584 C10.3896104,8.37662338 8.37662338,10.3896104 5.84415584,10.3896104 M5.84415584,0 C2.5974026,0 0,2.5974026 0,5.84415584 C0,9.09090909 2.5974026,11.6883117 5.84415584,11.6883117 C9.09090909,11.6883117 11.6883117,9.09090909 11.6883117,5.84415584 C11.6883117,2.5974026 9.09090909,0 5.84415584,0" id="Fill-1"></path>
        <polygon id="Fill-3" points="6.51948052 3.27272727 5.22077922 3.27272727 5.22077922 5.22077922 3.27272727 5.22077922 3.27272727 6.51948052 5.22077922 6.51948052 5.22077922 8.46753247 6.51948052 8.46753247 6.51948052 6.51948052 8.46753247 6.51948052 8.46753247 5.22077922 6.51948052 5.22077922"></polygon>
      </g>
    </g>
  </g>
</svg>
