<?xml version="1.0" encoding="UTF-8"?>
<!-- original viewBox="0 0 17 14" -->
<svg width="24px" height="24px" viewBox="-3.5 -5 24 24" version="1.1" xmlns="http://www.w3.org/2000/svg" xmlns:xlink="http://www.w3.org/1999/xlink">
  <!-- Generator: Sketch 48.2 (47327) - http://www.bohemiancoding.com/sketch -->
  <desc>Created with Sketch.</desc>
  <defs></defs>
  <g id="Page-1" stroke="none" stroke-width="1" fill-rule="evenodd">
    <g id="05-MultipleData" transform="translate(-26.000000, -228.000000)"  fill-rule="nonzero">
      <path d="M42.808503,234.393696 C43.0638323,234.649025 43.0638323,235.062914 42.808503,235.318243 C42.5531736,235.573573 42.139285,235.573573 41.8839556,235.318243 C40.9594083,234.393696 39.7301657,233.884672 38.4231146,233.884672 C37.1157367,233.884672 35.8864941,234.393696 34.9622737,235.318243 C33.790897,236.48962 32.2334205,237.134972 30.5768854,237.134972 C28.9206771,237.134972 27.3628737,236.48962 26.191497,235.318243 C25.9361677,235.062914 25.9361677,234.649025 26.191497,234.393696 C26.4468264,234.138367 26.860715,234.138367 27.1160444,234.393696 C28.0405917,235.318243 29.2698343,235.827268 30.5768854,235.827268 C31.8842633,235.827268 33.1135059,235.318243 34.0377263,234.393696 C35.209103,233.222319 36.7665795,232.576967 38.4231146,232.576967 C40.0793229,232.576967 41.6371263,233.222319 42.808503,234.393696 Z M30.5768854,232.558005 C32.2334205,232.558005 33.790897,231.912653 34.9622737,230.741276 C35.8864941,229.816729 37.1157367,229.307705 38.4231146,229.307705 C39.7301657,229.307705 40.9594083,229.816729 41.8839556,230.741276 C42.139285,230.996606 42.5531736,230.996606 42.808503,230.741276 C43.0638323,230.485947 43.0638323,230.072058 42.808503,229.816729 C41.6371263,228.645352 40.0793229,228 38.4231146,228 C36.7665795,228 35.209103,228.645352 34.0377263,229.816729 C33.1135059,230.741276 31.8842633,231.2503 30.5768854,231.2503 C29.2698343,231.2503 28.0405917,230.741276 27.1160444,229.816729 C26.860715,229.5614 26.4468264,229.5614 26.191497,229.816729 C25.9361677,230.072058 25.9361677,230.485947 26.191497,230.741276 C27.3628737,231.912653 28.9206771,232.558005 30.5768854,232.558005 Z M38.4231146,237.153934 C36.7665795,237.153934 35.209103,237.799287 34.0377263,238.970663 C33.1135059,239.895211 31.8842633,240.404235 30.5768854,240.404235 C29.2698343,240.404235 28.0405917,239.895211 27.1160444,238.970663 C26.860715,238.715334 26.4468264,238.715334 26.191497,238.970663 C25.9361677,239.225993 25.9361677,239.639881 26.191497,239.895211 C27.3628737,241.066587 28.9206771,241.71194 30.5768854,241.71194 C32.2334205,241.71194 33.790897,241.066587 34.9622737,239.895211 C35.8864941,238.970663 37.1157367,238.461639 38.4231146,238.461639 C39.7301657,238.461639 40.9594083,238.970663 41.8839556,239.895211 C42.139285,240.15054 42.5531736,240.15054 42.808503,239.895211 C43.0638323,239.639881 43.0638323,239.225993 42.808503,238.970663 C41.6371263,237.799287 40.0793229,237.153934 38.4231146,237.153934 Z" id="Shape"></path>
    </g>
  </g>
</svg>
