<?xml version="1.0" encoding="UTF-8"?>
<!-- original  viewBox="0 0 21 15" -->
<svg width="24px" height="24px" viewBox="-1.5 -4.5 24 24" version="1.1" xmlns="http://www.w3.org/2000/svg" xmlns:xlink="http://www.w3.org/1999/xlink">
  <!-- Generator: Sketch 48.2 (47327) - http://www.bohemiancoding.com/sketch -->
  <desc>Created with Sketch.</desc>
  <defs></defs>
  <g id="Page-1" stroke="none" stroke-width="1" fill-rule="evenodd">
    <g id="05-MultipleData" transform="translate(-24.000000, -187.000000)" fill-rule="nonzero">
      <path d="M39.6616045,193.208333 L39.0477366,191.273148 L39.0477366,188.763889 C39.0477366,187.791667 38.366104,187 37.5290114,187 L36.4726802,187 C36.1617601,187 35.9106323,187.291667 35.9106323,187.652778 C35.9106323,188.013889 36.1617601,188.305556 36.4726802,188.305556 L37.5290114,188.305556 C37.7482499,188.305556 37.9236408,188.513889 37.9236408,188.763889 L37.9236408,190.708333 L32.0998677,190.708333 L32.0998677,190.143519 L32.901085,190.143519 C33.2120051,190.143519 33.4631329,189.851852 33.4631329,189.490741 C33.4631329,189.12963 33.2120051,188.837963 32.901085,188.837963 L30.1705685,188.837963 C29.8596484,188.837963 29.6085206,189.12963 29.6085206,189.490741 C29.6085206,189.851852 29.8596484,190.143519 30.1705685,190.143519 L30.9757719,190.143519 L30.9757719,191.162037 L29.5567006,193.606481 C27.129132,192.171296 24.0597923,194.060185 24,197.560185 C24,200.009259 25.7140468,202 27.822723,202 C29.6842576,202 31.234872,200.449074 31.5776814,198.402778 L32.9808081,198.402778 C33.1282958,198.402778 33.2717974,198.333333 33.3794236,198.212963 L38.2584778,192.546296 L38.6052733,193.652778 C37.4134129,194.407407 36.6002372,195.875 36.6002372,197.560185 C36.6002372,200.009259 38.314284,202 40.4269464,202 C42.5356226,202 44.2775725,200.009259 44.2496694,197.560185 C44.2177801,194.523148 41.8380454,192.680556 39.6616045,193.208333 Z M27.822723,200.694444 C26.3358871,200.694444 25.1240958,199.287037 25.1240958,197.560185 C25.1240958,195.518519 26.8819903,193.74537 28.9189157,194.699074 L27.3563428,197.388889 C27.2407443,197.587963 27.2287859,197.847222 27.3244536,198.060185 C27.4201213,198.273148 27.6114568,198.407407 27.822723,198.407407 L30.4216963,198.407407 C30.1028039,199.726852 29.0624173,200.694444 27.822723,200.694444 Z M28.8830404,197.097222 L29.8317453,195.467593 C30.1785409,195.916667 30.413724,196.476852 30.4934471,197.097222 L28.8830404,197.097222 Z M32.7496111,197.097222 L31.6295014,197.097222 C31.5338337,196.027778 31.1073151,195.069444 30.4735164,194.361111 L31.8407676,192.009259 L37.1303959,192.009259 L32.7496111,197.097222 Z M40.4229602,200.694444 C38.9361242,200.694444 37.724333,199.287037 37.724333,197.560185 C37.724333,196.439815 38.2345609,195.458333 38.9959166,194.902778 L39.8967877,197.782407 C39.9884693,198.069444 40.2754725,198.310185 40.6182818,198.171296 C40.9092712,198.046296 41.0607451,197.671296 40.9531189,197.333333 L40.0522478,194.453704 C41.6905576,194.180556 43.1255736,195.685185 43.1255736,197.555556 C43.1255736,199.291667 41.9137823,200.694444 40.4229602,200.694444 Z" id="Shape"></path>
    </g>
  </g>
</svg>
