<?xml version="1.0" encoding="UTF-8"?>
<svg width="24px" height="24px" viewBox="-2.5 -1.5 24 24" version="1.1" xmlns="http://www.w3.org/2000/svg" xmlns:xlink="http://www.w3.org/1999/xlink">
  <!-- Generator: Sketch 48.2 (47327) - http://www.bohemiancoding.com/sketch -->
  <desc>Created with Sketch.</desc>
  <defs></defs>
  <g id="Page-1" stroke="none" stroke-width="1" fill-rule="evenodd">
    <g id="04-AccessToGPs_InfoOpen" transform="translate(-1281.000000, -324.000000)">
      <path d="M1283.82762,324 L1296.71825,324 C1298.29839,324 1299.62903,325.24748 1299.62903,326.827621 L1299.62903,340.217238 C1299.62903,340.965726 1299.37954,341.547883 1298.96371,342.046875 L1298.96371,343.543851 C1298.96371,344.126008 1298.46472,344.625 1297.88256,344.625 L1295.55393,344.625 C1294.97177,344.625 1294.47278,344.126008 1294.47278,343.543851 L1294.47278,343.128024 L1286.07308,343.128024 L1286.07308,343.543851 C1286.07308,344.126008 1285.57409,344.625 1284.99194,344.625 L1282.74647,344.625 C1282.16431,344.625 1281.66532,344.126008 1281.66532,343.543851 L1281.66532,342.046875 C1281.2495,341.547883 1281,340.965726 1281,340.217238 L1281,326.827621 C1281,325.24748 1282.24748,324 1283.82762,324 Z M1287.2374,324.831653 L1293.39163,324.831653 C1294.38962,324.831653 1294.38962,326.328629 1293.39163,326.328629 L1287.2374,326.328629 C1286.23942,326.328629 1286.23942,324.831653 1287.2374,324.831653 Z M1287.81956,341.215222 C1287.40373,341.215222 1287.40373,340.633065 1287.81956,340.633065 L1292.80948,340.633065 C1293.14214,340.633065 1293.14214,341.215222 1292.80948,341.215222 L1287.81956,341.215222 Z M1286.57208,340.050907 C1286.15625,340.050907 1286.15625,339.385585 1286.57208,339.385585 L1294.05696,339.385585 C1294.47278,339.385585 1294.47278,340.050907 1294.05696,340.050907 L1286.57208,340.050907 Z M1284.65927,326.993952 L1295.96976,326.993952 C1297.46673,326.993952 1298.79738,328.241431 1298.79738,329.821573 L1298.79738,334.229335 C1298.79738,335.809476 1297.46673,337.056956 1295.96976,337.056956 L1284.65927,337.056956 C1283.07913,337.056956 1281.83165,335.809476 1281.83165,334.229335 L1281.83165,329.821573 C1281.83165,328.241431 1283.07913,326.993952 1284.65927,326.993952 Z M1296.80141,338.22127 C1296.13609,338.22127 1295.55393,338.803427 1295.55393,339.46875 C1295.55393,340.134073 1296.13609,340.71623 1296.80141,340.71623 C1297.46673,340.71623 1298.04889,340.134073 1298.04889,339.46875 C1298.04889,338.803427 1297.46673,338.22127 1296.80141,338.22127 Z M1283.82762,338.22127 C1284.49294,338.22127 1285.0751,338.803427 1285.0751,339.46875 C1285.0751,340.134073 1284.49294,340.71623 1283.82762,340.71623 C1283.07913,340.71623 1282.58014,340.134073 1282.58014,339.46875 C1282.58014,338.803427 1283.07913,338.22127 1283.82762,338.22127 Z" id="Shape"></path>
    </g>
  </g>
</svg>
