<?xml version="1.0" encoding="UTF-8"?>
<svg width="24px" height="24px" viewBox="-3.5 -4 24 24" version="1.1" xmlns="http://www.w3.org/2000/svg" xmlns:xlink="http://www.w3.org/1999/xlink">
  <!-- Generator: Sketch 48.2 (47327) - http://www.bohemiancoding.com/sketch -->
  <desc>Created with Sketch.</desc>
  <defs></defs>
  <g id="Page-1" stroke="none" stroke-width="1"  fill-rule="evenodd">
    <g id="04-AccessToGPs_InfoOpen" transform="translate(-1385.000000, -329.000000)"  fill-rule="nonzero">
      <path d="M1398.04401,339.387593 L1388.89574,339.387593 C1389.19612,340.004665 1391.12941,340.480664 1393.46996,340.480664 C1395.81016,340.480664 1397.74397,340.004665 1398.04401,339.387593 Z M1385.93346,337.616134 C1385.90482,338.173771 1386.57772,338.763176 1387.43643,338.931748 C1388.29497,339.100661 1389.01397,338.785891 1389.04261,338.228254 C1389.07125,337.670105 1388.39836,337.081042 1387.53982,336.912128 C1386.6811,336.743215 1385.9621,337.058497 1385.93346,337.616134 Z M1393.46961,329.724161 C1391.53231,329.736287 1389.27384,329.804604 1387.41984,330.240637 C1387.25533,330.27138 1387.23594,330.440635 1387.23594,330.440635 L1387.07719,334.563904 C1387.06357,335.279012 1387.89888,335.60403 1393.46944,335.62128 C1399.04034,335.60403 1399.87548,335.279012 1399.86203,334.563904 L1399.70311,330.440635 C1399.70311,330.440635 1399.68407,330.27138 1399.51921,330.240637 C1397.66504,329.804604 1395.40692,329.736287 1393.46961,329.724161 Z M1401.00541,337.616134 C1400.97677,337.058156 1400.25812,336.743044 1399.39958,336.912128 C1398.54104,337.081042 1397.86797,337.670105 1397.89679,338.228254 C1397.92543,338.786062 1398.64425,339.100661 1399.50279,338.931748 C1400.36168,338.763176 1401.03406,338.173771 1401.00541,337.616134 Z M1393.50017,343.475337 L1392.99092,343.474995 C1391.09885,343.467993 1389.24293,343.432126 1387.69892,343.321282 L1387.69892,344.163801 C1387.69892,344.625794 1387.3161,345 1386.84387,345 L1386.14076,345 C1385.66853,345 1385.28571,344.626306 1385.28571,344.163801 L1385.28571,342.404469 C1385.26738,342.248023 1385.24799,342.068008 1385.22913,341.866985 C1385.08383,341.129675 1385,340.258463 1385,339.32457 C1385,338.140638 1385.13517,337.056448 1385.35906,336.218882 C1385.40342,336.028107 1385.45721,335.857827 1385.51816,335.705993 C1385.53685,335.653901 1385.55623,335.603176 1385.57579,335.553817 L1386.42648,329.860966 C1386.42648,329.860966 1386.46071,329.623906 1386.67779,329.57096 C1388.62993,329.05141 1393.33688,328.99966 1393.50017,329.000002 C1393.66312,328.99966 1398.37059,329.05141 1400.32221,329.57096 C1400.53912,329.623906 1400.57387,329.860966 1400.57387,329.860966 L1401.42403,335.553817 C1401.44342,335.603176 1401.46315,335.653901 1401.48166,335.705993 C1401.54261,335.857827 1401.59623,336.028107 1401.64094,336.218882 C1401.86448,337.056277 1402,338.140638 1402,339.32457 C1402,340.258463 1401.91617,341.129333 1401.77087,341.866985 C1401.75201,342.068349 1401.73262,342.248023 1401.71411,342.404469 L1401.71411,344.163801 C1401.71411,344.625794 1401.33165,345 1400.85941,345 L1400.15613,345 C1399.68407,345 1399.30108,344.626306 1399.30108,344.163801 L1399.30108,343.321453 C1397.75707,343.432126 1395.90133,343.467993 1394.00908,343.474995 L1393.50017,343.475337 Z" id="Shape"></path>
    </g>
  </g>
</svg>
