<?xml version="1.0" encoding="UTF-8"?>
<svg width="24px" height="24px" viewBox="-5 -5 24 24" version="1.1" xmlns="http://www.w3.org/2000/svg" xmlns:xlink="http://www.w3.org/1999/xlink">
    <!-- Generator: Sketch 48.2 (47327) - http://www.bohemiancoding.com/sketch -->
    <title>Page 1</title>
    <desc>Created with Sketch.</desc>
    <defs>
        <polygon id="path-1" points="3.2183908e-05 0 13.9142299 0 13.9142299 13.9141816 3.2183908e-05 13.9141816"></polygon>
    </defs>
    <g id="04-MultipleData" stroke="none" stroke-width="1" fill-rule="evenodd" transform="translate(-1113.000000, -13.000000)">
        <g id="Page-1" transform="translate(1113.000000, 13.000000)">
            <path d="M8.91183678,6.95695402 L13.7745034,2.09412644 C13.9610092,1.90762069 13.9610092,1.60541379 13.7745034,1.41906897 L12.4951931,0.139758621 C12.3086874,-0.0465862069 12.0064805,-0.0465862069 11.8199747,0.139758621 L6.95730805,5.00258621 L2.09431954,0.139758621 C1.90813563,-0.0465862069 1.60576782,-0.0465862069 1.41910115,0.139758621 L0.139790805,1.41906897 C-0.046554023,1.60541379 -0.046554023,1.90762069 0.139790805,2.09412644 L5.00277931,6.95695402 L0.140112644,11.8199425 C-0.046554023,12.0064483 -0.046554023,12.3086552 0.140112644,12.495 L1.41910115,13.7743103 C1.60576782,13.9608161 1.90813563,13.9608161 2.09431954,13.7743103 L6.95730805,8.91164368 L11.8198138,13.7743103 C12.0063195,13.9608161 12.3085264,13.9608161 12.4950322,13.7743103 L13.7743425,12.495 C13.9608483,12.3086552 13.9608483,12.0064483 13.7743425,11.8199425 L8.91183678,6.95695402 Z" id="Fill-1"></path>
        </g>
    </g>
</svg>
