<?xml version="1.0" encoding="UTF-8"?>
<!-- original  viewBox="0 0 24 20"" -->
<svg width="24px" height="24px" viewBox="0 -2 24 24" version="1.1" xmlns="http://www.w3.org/2000/svg" xmlns:xlink="http://www.w3.org/1999/xlink">
  <!-- Generator: Sketch 48.2 (47327) - http://www.bohemiancoding.com/sketch -->
  <desc>Created with Sketch.</desc>
  <g id="Symbols" stroke="none" stroke-width="1"  fill-rule="evenodd">
    <g id="AdminPanel_Edit" transform="translate(-23.000000, -12.000000)">
      <g id="Page-1" transform="translate(23.000000, 12.000000)">
        <g id="Group-3" transform="translate(0.000000, 6.907317)">
          <path d="M6.5268878,0.234087805 C5.29761951,0.234087805 4.24396098,1.02433171 3.83420488,2.10725854 L5.85365854e-05,2.10725854 L5.85365854e-05,4.15603902 L3.83420488,4.15603902 C4.24396098,5.23896585 5.29761951,6.02920976 6.5268878,6.02920976 C7.7561561,6.02920976 8.80981463,5.23896585 9.21957073,4.15603902 L23.941522,4.15603902 L23.941522,2.10725854 L9.21957073,2.10725854 C8.80981463,1.02433171 7.7561561,0.234087805 6.5268878,0.234087805" id="Fill-1"  ></path>
        </g>
        <g id="Group-6" transform="translate(0.000000, 13.931707)">
          <path d="M17.7074341,0.058595122 C16.4781659,0.058595122 15.4242146,0.848839024 15.0147512,1.93147317 L0.000117073171,1.93147317 L0.000117073171,3.98025366 L15.0147512,3.98025366 C15.4242146,5.06347317 16.4781659,5.85371707 17.7074341,5.85371707 C18.9364098,5.85371707 19.990361,5.06347317 20.3998244,3.98025366 L23.9415805,3.98025366 L23.9415805,1.93147317 L20.3998244,1.93147317 C19.990361,0.848839024 18.9364098,0.058595122 17.7074341,0.058595122" id="Fill-4" ></path>
        </g>
        <g id="Group-9" transform="translate(0.000000, 0.175610)">
          <g id="Clip-8"></g>
          <path d="M20.3998829,1.99018537 C19.9904195,0.907258537 18.9364683,0.117014634 17.7074927,0.117014634 C16.4782244,0.117014634 15.4242732,0.907258537 15.0148098,1.99018537 L-0.000117073171,1.99018537 L-0.000117073171,4.03896585 L15.0148098,4.03896585 C15.4242732,5.12189268 16.4782244,5.91213659 17.7074927,5.91213659 C18.9364683,5.91213659 19.9904195,5.12189268 20.3998829,4.03896585 L23.941639,4.03896585 L23.941639,1.99018537 L20.3998829,1.99018537 Z" id="Fill-7"  ></path>
        </g>
      </g>
    </g>
  </g>
</svg>
