<?xml version="1.0" encoding="UTF-8"?>
<!-- original  viewBox="0 0 19 20" -->
<svg width="24px" height="24px" viewBox="-2.5 -2 24 24" version="1.1" xmlns="http://www.w3.org/2000/svg" xmlns:xlink="http://www.w3.org/1999/xlink">
  <!-- Generator: Sketch 48.2 (47327) - http://www.bohemiancoding.com/sketch -->
  <desc>Created with Sketch.</desc>
  <defs></defs>
  <g id="Symbols" stroke="none" stroke-width="1" fill-rule="evenodd">
    <g id="AdminPanel" transform="translate(-181.000000, -12.000000)">
      <g id="Page-1-Copy-2" transform="translate(181.000000, 12.000000)">
        <path d="M13.5714286,11.5357143 C12.8209286,11.5357143 12.2142857,12.1437143 12.2142857,12.8928571 L12.2142857,16.9642857 L2.71428571,16.9642857 L2.71428571,7.46428571 L6.78571429,7.46428571 C7.53621429,7.46428571 8.14285714,6.85628571 8.14285714,6.10714286 C8.14285714,5.358 7.53621429,4.75 6.78571429,4.75 L1.35714286,4.75 C0.606642857,4.75 0,5.358 0,6.10714286 L0,18.3214286 C0,19.0705714 0.606642857,19.6785714 1.35714286,19.6785714 L13.5714286,19.6785714 C14.3219286,19.6785714 14.9285714,19.0705714 14.9285714,18.3214286 L14.9285714,12.8928571 C14.9285714,12.1437143 14.3219286,11.5357143 13.5714286,11.5357143" id="Fill-1"></path>
        <path d="M16.964625,0 L10.1789107,0 C9.42841071,0 8.82176786,0.608 8.82176786,1.35714286 C8.82176786,2.10628571 9.42841071,2.71428571 10.1789107,2.71428571 L13.6884821,2.71428571 L5.14798214,11.2547857 C4.61733929,11.7854286 4.61733929,12.6431429 5.14798214,13.1737857 C5.412625,13.4384286 5.76005357,13.5714286 6.10748214,13.5714286 C6.45491071,13.5714286 6.80233929,13.4384286 7.06698214,13.1737857 L15.6074821,4.63328571 L15.6074821,8.14285714 C15.6074821,8.892 16.214125,9.5 16.964625,9.5 C17.715125,9.5 18.3217679,8.892 18.3217679,8.14285714 L18.3217679,1.35714286 C18.3217679,0.608 17.715125,0 16.964625,0" id="Fill-3"></path>
      </g>
    </g>
  </g>
</svg>
