<?xml version="1.0" encoding="UTF-8"?>
<!-- original viewBox="0 0 15 14" -->
<svg width="24px" height="24px" viewBox="-4.5 -5 24 24" version="1.1" xmlns="http://www.w3.org/2000/svg" xmlns:xlink="http://www.w3.org/1999/xlink">
  <!-- Generator: Sketch 48.2 (47327) - http://www.bohemiancoding.com/sketch -->
  <desc>Created with Sketch.</desc>
  <defs></defs>
  <g id="Symbols" stroke="none" stroke-width="1"  fill-rule="evenodd">
    <g id="Page-1">
      <path d="M7.5,5.25198413 C6.626,5.25198413 5.91666667,5.99492063 5.91666667,6.91071429 C5.91666667,7.82703175 6.626,8.56944444 7.5,8.56944444 C8.375,8.56944444 9.08333333,7.82703175 9.08333333,6.91071429 C9.08333333,5.99492063 8.375,5.25198413 7.5,5.25198413" id="Fill-1"></path>
      <path d="M7.5,10.2281746 C5.75233333,10.2281746 4.33333333,8.74369841 4.33333333,6.91071429 C4.33333333,5.0798254 5.75233333,3.59325397 7.5,3.59325397 C9.25,3.59325397 10.6666667,5.0798254 10.6666667,6.91071429 C10.6666667,8.74369841 9.25,10.2281746 7.5,10.2281746 M7.5,2 C2.84033333,2 0,6.91071429 0,6.91071429 C0,6.91071429 2.84033333,11.8214286 7.5,11.8214286 C12.1605,11.8214286 15,6.91071429 15,6.91071429 C15,6.91071429 12.1605,2 7.5,2" id="Fill-3"></path>
      <polygon id="Line-2" fill-rule="nonzero" points="13.5307148 0.793560616 14.2064394 1.53071476 1.46928524 13.2064394 0.793560616 12.4692852"></polygon>
    </g>
  </g>
</svg>
