<?xml version="1.0" encoding="UTF-8"?>
<!-- original viewBox="0 0 15 10" -->
<svg width="24px" height="24px" viewBox="-4.5 -7 24 24" version="1.1" xmlns="http://www.w3.org/2000/svg" xmlns:xlink="http://www.w3.org/1999/xlink">
  <!-- Generator: Sketch 48.2 (47327) - http://www.bohemiancoding.com/sketch -->
  <desc>Created with Sketch.</desc>
  <defs></defs>
  <g id="Symbols" stroke="none" stroke-width="1" fill-rule="evenodd">
    <g id="Layer_Admin_Buttons" transform="translate(0.000000, -3.000000)">
      <g id="Page-1" transform="translate(0.000000, 3.000000)">
        <path d="M7.5,3.25198413 C6.626,3.25198413 5.91666667,3.99492063 5.91666667,4.91071429 C5.91666667,5.82703175 6.626,6.56944444 7.5,6.56944444 C8.375,6.56944444 9.08333333,5.82703175 9.08333333,4.91071429 C9.08333333,3.99492063 8.375,3.25198413 7.5,3.25198413" id="Fill-1"></path>
        <path d="M7.5,8.2281746 C5.75233333,8.2281746 4.33333333,6.74369841 4.33333333,4.91071429 C4.33333333,3.0798254 5.75233333,1.59325397 7.5,1.59325397 C9.25,1.59325397 10.6666667,3.0798254 10.6666667,4.91071429 C10.6666667,6.74369841 9.25,8.2281746 7.5,8.2281746 M7.5,0 C2.84033333,0 0,4.91071429 0,4.91071429 C0,4.91071429 2.84033333,9.82142857 7.5,9.82142857 C12.1605,9.82142857 15,4.91071429 15,4.91071429 C15,4.91071429 12.1605,0 7.5,0" id="Fill-3"></path>
      </g>
    </g>
  </g>
</svg>
