<?xml version="1.0" encoding="UTF-8"?>
<!-- original viewBox="0 0 17 20" -->
<svg width="24px" height="24px" viewBox="-3.5 -2 24 24" version="1.1" xmlns="http://www.w3.org/2000/svg" xmlns:xlink="http://www.w3.org/1999/xlink">
  <!-- Generator: Sketch 48.2 (47327) - http://www.bohemiancoding.com/sketch -->
  <desc>Created with Sketch.</desc>
  <defs></defs>
  <g id="Page-1" stroke="none" stroke-width="1"  fill-rule="evenodd">
    <g id="05-MultipleData" transform="translate(-28.000000, -492.000000)" >
      <g id="Icon_GP" transform="translate(28.000000, 492.000000)">
        <path d="M12.0548184,11.2730121 C11.7865491,10.3530532 12.6593056,9.52567455 13.6396474,9.77349527 C14.0664637,9.88148869 14.4114423,10.2074838 14.5233013,10.6107465 C14.7774679,11.526575 13.9157158,12.3399509 12.9456303,12.1020027 C12.5186004,11.9972329 12.1718056,11.6741593 12.0548184,11.2730121 M1.34915598,7.66853022 C1.77875,8.37612891 3.15535256,10.434552 4.87885684,11.0542046 L4.87885684,14.6770212 C4.87885684,17.3796774 6.81090812,19.2644245 9.57511752,19.2644245 C12.3376175,19.2644245 14.2692415,17.3796774 14.2692415,14.6770212 L14.2692415,13.9348686 C15.6269338,13.5402695 16.6155021,12.3443834 16.6155021,10.9353312 C16.6155021,9.15837603 15.0391132,7.72051213 13.1362286,7.80039905 C11.4424252,7.87152159 10.0415705,9.18557586 9.96080128,10.7826092 C9.8878312,12.2285323 10.8584509,13.4713633 12.2205235,13.9081725 L12.2205235,14.678633 C12.2205235,16.6376256 10.8546047,17.3347473 9.57511752,17.3347473 C8.29627137,17.3347473 6.92810897,16.6376256 6.92810897,14.678633 L6.92810897,11.0149159 C8.63419872,10.34036 10.1301389,8.25725555 10.8328098,6.92849322 C11.4640064,5.74247965 12.3525748,3.54694922 11.2686004,2.18504338 C11.0626175,1.9275516 10.7917842,1.69675596 10.4620833,1.4942683 C10.2888996,0.643719367 9.49744658,-1.00740132e-05 8.54541667,-1.00740132e-05 C8.21464744,-1.00740132e-05 7.90321581,0.0782650082 7.63003205,0.215473067 L7.63003205,3.46645785 C7.90321581,3.60366591 8.21464744,3.681941 8.54541667,3.681941 C8.95065171,3.681941 9.32810897,3.56528392 9.64060897,3.36481106 C9.82875,3.64114124 9.75770299,4.63665522 9.00054487,6.06545251 C7.93825855,8.07310259 6.4528953,9.3061618 5.85236111,9.3061618 C5.39060897,9.3061618 4.20492521,8.4802942 3.1270406,6.70545456 C2.13633547,5.07618442 1.94306624,3.79809437 2.10791667,3.34436081 C2.42714744,3.55531065 2.8128312,3.681941 3.23142094,3.681941 C3.6020406,3.681941 3.94733974,3.58261123 4.24253205,3.41326706 L4.24253205,0.268663857 C3.94733974,0.0992189556 3.6020406,-1.00740132e-05 3.23142094,-1.00740132e-05 C2.32725427,-1.00740132e-05 1.57233974,0.582469367 1.35139957,1.36965275 C0.924049145,1.62502899 0.590395299,1.92966715 0.37340812,2.27933614 C-0.706185897,4.01690193 0.848514957,6.84256188 1.34915598,7.66853022" id="Fill-1"></path>
        <path d="M13.2869979,10.2934453 C13.6636004,10.2934453 13.9689423,10.5812599 13.9689423,10.9364696 C13.9689423,11.2915785 13.6636004,11.5794938 13.2869979,11.5794938 C12.9105021,11.5794938 12.6051603,11.2915785 12.6051603,10.9364696 C12.6051603,10.5812599 12.9105021,10.2934453 13.2869979,10.2934453" id="Path"></path>
      </g>
    </g>
  </g>
</svg>
