<?xml version="1.0" encoding="UTF-8"?>
<!-- original viewBox="0 0 20 18" -->
<svg width="24px" height="24px" viewBox="-2 -3 24 24" version="1.1" xmlns="http://www.w3.org/2000/svg" xmlns:xlink="http://www.w3.org/1999/xlink">
  <!-- Generator: Sketch 48.2 (47327) - http://www.bohemiancoding.com/sketch -->
  <desc>Created with Sketch.</desc>
  <defs></defs>
  <g id="Page-1" stroke="none" stroke-width="1"  fill-rule="evenodd">
    <g id="05-MultipleData" transform="translate(-24.000000, -267.000000)"  fill-rule="nonzero">
      <g id="noun_40550_cc" transform="translate(24.000000, 267.000000)">
        <path d="M14.2876923,7.15208791 C14.2876923,7.15208791 14.2876923,7.15208791 14.1404396,7.48395604 C13.992967,7.81604396 12.3318681,9.88153846 11.9630769,10.3978022 C11.5942857,10.9140659 9.04879121,13.0549451 8.64307692,13.2756044 C8.23714286,13.4975824 7.46175824,13.756044 6.2821978,15.0107692 C6.64835165,14.3338462 6.86395604,12.7923077 6.86197802,11.9072527 C7.43758242,11.529011 8.70879121,10.6813187 9.04879121,10.398022 C9.49142857,10.0292308 10.5984615,7.50879121 10.7826374,7.10923077 C10.923956,6.80263736 11.2162637,6.21186813 11.3463736,5.95296703 C11.2061538,5.97208791 11.0646154,5.98285714 10.92,5.98285714 C10.6931868,5.98285714 10.4773626,5.95736264 10.2767033,5.90967033 C9.96395604,6.73340659 8.69274725,9.14791209 8.45868132,9.55010989 C8.23912088,9.92615385 7.13978022,10.5167033 6.72395604,10.9112088 C6.68505495,10.3054945 6.7978022,9.40241758 6.7978022,9.40241758 C6.7978022,9.40241758 6.29252747,8.29538462 5.87538462,7.44879121 C6.19648352,7.28747253 7.17450549,5.69406593 7.41450549,5.2967033 C7.11274725,5.19450549 6.84263736,5.02923077 6.61648352,4.81098901 C6.36,5.31582418 5.70703297,6.29450549 5.36593407,6.65340659 C4.61736264,6.47692308 4.21054945,5.42989011 4.12241758,5.17758242 C3.88505495,5.37582418 3.6021978,5.52703297 3.30813187,5.63010989 C3.42417582,6.0243956 4.0156044,6.72967033 4.39934066,7.10923077 C4.80593407,7.50901099 5.02659341,7.41032967 5.28527473,7.85296703 C5.5432967,8.29626374 5.91208791,8.99714286 5.98571429,9.44021978 C6.05956044,9.88197802 6.24395604,10.8043956 6.24395604,11.3589011 C6.24395604,11.9118681 5.39626374,13.9786813 5.17428571,14.4951648 C4.95318681,15.0112088 4.5843956,17.9265934 4.5843956,17.9265934 C4.5843956,17.9265934 5.39604396,17.9265934 6.02373626,17.9265934 C6.05956044,17.0767033 6.5021978,16.0813187 6.76087912,15.7485714 C7.01956044,15.4171429 9.23296703,14.0876923 9.93428571,13.498022 C10.6349451,12.9081319 13.2182418,10.5846154 13.6241758,9.91956044 C13.9804396,9.33516484 15.0514286,7.80813187 15.3046154,7.44989011 C14.9793407,7.44241758 14.6389011,7.34461538 14.3318681,7.16175824 L14.2876923,7.15208791 Z" id="Shape"></path>
        <path d="M10.92,5.54065934 C11.4167033,5.54065934 11.9206593,5.39582418 12.2215385,5.12307692 C12.2641758,5.69252747 12.6457143,5.9367033 13.0325275,5.9367033 C13.3210989,5.9367033 13.6140659,5.80153846 13.770989,5.56483516 C13.8936264,6.48571429 14.6654945,7.00857143 15.3501099,7.00857143 C15.7065934,7.00857143 16.0413187,6.86483516 16.2432967,6.5610989 C16.5382418,6.95164835 16.938022,7.10901099 17.3474725,7.10901099 C18.5276923,7.10901099 19.8043956,5.81516484 19.0094505,5.04923077 C20.9498901,3.99340659 19.689011,1.71494505 18.2068132,1.71494505 C18.0813187,1.71494505 17.9553846,1.73032967 17.8294505,1.76505495 C18.689011,0.904835165 17.1294505,0.0953846154 15.8059341,0.0953846154 C15.1408791,0.0953846154 14.5342857,0.298681319 14.3246154,0.805274725 C14.0389011,0.44967033 13.6305495,0.302637363 13.1912088,0.302637363 C12.1052747,0.302637363 10.8342857,1.20241758 10.7643956,2.05362637 C10.7789011,2.13604396 10.7850549,2.22417582 10.7824176,2.31802198 C10.761978,2.23120879 10.7562637,2.14351648 10.7643956,2.05362637 C10.650989,1.44505495 10.0736264,1.1956044 9.55054945,1.1956044 C9.24241758,1.1956044 8.95384615,1.28175824 8.79054945,1.43208791 C8.94813187,0.583076923 7.77208791,0.135164835 6.62373626,0.135164835 C5.62747253,0.135164835 4.65208791,0.471648352 4.58373626,1.17450549 C4.32417582,1.02461538 3.99406593,0.961538462 3.63956044,0.961538462 C2.67758242,0.961538462 1.53868132,1.42747253 1.18923077,1.91230769 C0.70989011,2.5767033 0.856923077,3.4989011 1.33582418,3.60945055 C-0.176483516,4.16285714 0.155824176,4.97472527 0.561758242,5.27054945 C0.787692308,5.43428571 1.09362637,5.56483516 1.37142857,5.56483516 C1.59296703,5.56483516 1.79604396,5.48197802 1.92615385,5.27054945 C2.07626374,5.32 2.24373626,5.34351648 2.41912088,5.34351648 C3.15010989,5.34351648 4.01318681,4.92879121 4.25076923,4.27450549 C4.56747253,4.53538462 4.94615385,4.64791209 5.3021978,4.64791209 C5.89934066,4.64791209 6.43142857,4.33054945 6.5010989,3.86813187 C6.83648352,4.67626374 7.54021978,4.97868132 8.18483516,4.97868132 C8.74703297,4.97868132 9.2643956,4.74901099 9.45340659,4.42175824 C9.38747253,5.18703297 10.1432967,5.54065934 10.92,5.54065934 Z" id="Shape"></path>
      </g>
    </g>
  </g>
</svg>
