<?xml version="1.0" encoding="UTF-8"?>

<svg width="24px" height="24px" viewBox="-2 -2 24 24" version="1.1" xmlns="http://www.w3.org/2000/svg" xmlns:xlink="http://www.w3.org/1999/xlink">
  <!-- Generator: Sketch 48.2 (47327) - http://www.bohemiancoding.com/sketch -->
  <title>Page 1</title>
  <desc>Created with Sketch.</desc>
  <g id="AdminPanel_SaveDisabled" stroke="none" stroke-width="1" fill-rule="evenodd">
    <g id="Page-1">
      <path d="M12.5421053,14.4789474 C12.5,14.6052632 12.4155789,14.7526316 12.3315789,14.8366316 C11.784,15.4050526 11.1105263,15.7421053 10.3103158,15.7421053 C9.93157895,15.7421053 9.57368421,15.7421053 9.19473684,15.6787368 C8.58421053,15.5947368 7.80526316,14.8366316 7.91052632,14.0366316 C7.99473684,13.4894737 8.07894737,12.9418947 8.16315789,12.3947368 C8.33157895,11.4473684 8.5,10.4789474 8.66842105,9.53157895 C8.66842105,9.46842105 8.68947368,9.40505263 8.68947368,9.34210526 C8.68947368,8.94210526 8.56315789,8.79473684 8.16315789,8.75263158 C7.99473684,8.73157895 7.82631579,8.71052632 7.65789474,8.66821053 C7.46842105,8.60526316 7.36315789,8.43684211 7.38421053,8.28947368 C7.40526316,8.12105263 7.51052632,8.01578947 7.72105263,7.97368421 C7.82631579,7.95263158 7.95263158,7.95263158 8.07894737,7.95263158 L9.48947368,7.95263158 L10.9842105,7.95263158 C11.3421053,7.95263158 11.5526316,8.12105263 11.5526316,8.47894737 C11.5526316,8.77347368 11.5105263,9.06842105 11.4473684,9.36315789 C11.2576842,10.4576842 11.0471579,11.5315789 10.8578947,12.6263158 C10.7947368,12.984 10.7105263,13.3421053 10.6684211,13.7 C10.6473684,13.8684211 10.6684211,14.0578947 10.7105263,14.2263158 C10.7736842,14.4576842 10.9418947,14.5842105 11.1736842,14.5629474 C11.3629474,14.5421053 11.5526316,14.4789474 11.7421053,14.3947368 C11.8892632,14.3315789 12.0157895,14.2263158 12.1631579,14.1842105 C12.4155789,14.0997895 12.6052632,14.2471579 12.5421053,14.4789474 M10.3736842,4.18421053 C11.2157895,4.18421053 11.8892632,4.87873684 11.8892632,5.72084211 C11.8892632,6.56294737 11.1947368,7.25789474 10.3736842,7.25789474 C9.53157895,7.25789474 8.83684211,6.56294737 8.83684211,5.7 C8.83684211,4.85789474 9.53157895,4.18421053 10.3736842,4.18421053 M17.0263158,2.92105263 C13.1315789,-0.973684211 6.81578947,-0.973684211 2.92105263,2.92105263 C-0.973684211,6.81578947 -0.973684211,13.1315789 2.92105263,17.0263158 C6.81578947,20.9210526 13.1315789,20.9210526 17.0263158,17.0263158 C20.9210526,13.1315789 20.9210526,6.81578947 17.0263158,2.92105263" id="Fill-1"></path>
    </g>
  </g>
</svg>
