<?xml version="1.0" encoding="UTF-8"?>
<!-- original viewBox="0 0 17 15" -->
<svg width="24px" height="24px" viewBox="-3.5 -4.5 24 24" version="1.1" xmlns="http://www.w3.org/2000/svg" xmlns:xlink="http://www.w3.org/1999/xlink">
  <!-- Generator: Sketch 48.2 (47327) - http://www.bohemiancoding.com/sketch -->
  <desc>Created with Sketch.</desc>
  <defs></defs>
  <g id="Page-1" stroke="none" stroke-width="1"  fill-rule="evenodd">
    <g id="05-MultipleData" transform="translate(-28.000000, -533.000000)" >
      <path d="M30.3430981,541.160465 L32.2081401,541.160465 L33.4708411,539.626603 C33.5773848,539.496681 33.6885316,539.338035 33.9550347,539.275547 C34.3479325,539.183194 34.798082,539.288768 34.9601512,539.510853 L35.8848085,541.123467 L36.9856321,537.681955 C37.0616799,537.445603 37.4621538,537.288384 37.8819033,537.330899 C38.1754499,537.36162 38.4011,537.483648 38.4799289,537.636302 L41.0332374,541.183768 L42.6528741,541.183768 L42.6572855,542.054893 L40.6176116,542.054893 C40.4267727,542.068779 40.2345913,542.041007 40.0807694,541.980992 C40.075495,541.978899 40.0701247,541.976521 40.066001,541.974334 C40.0542054,541.969673 40.0426976,541.965108 40.0300389,541.959592 C39.9052744,541.903476 39.8111976,541.824058 39.7683308,541.734177 L38.0285327,539.316635 L36.8560727,542.979186 C36.778874,543.216299 36.3799346,543.373708 35.9608563,543.330718 C35.6878321,543.30266 35.4755119,543.19604 35.3812433,543.060411 L35.3812433,543.05965 C35.3695436,543.043862 35.3610086,543.027883 35.3534326,543.010668 L34.1312969,540.879031 L33.4214532,541.731324 C33.3112653,541.920406 32.9958538,542.037393 32.6615502,542.03064 C32.6529193,542.03064 32.6460146,542.03083 32.6372878,542.03083 L30.3430981,542.03083 L30.3430981,541.160465 Z M28,537.815777 C28,542.996401 33.0467761,544.344986 35.7914988,547.447711 C35.8163367,547.481951 35.8377221,547.509533 35.8699442,547.540254 C36.2167146,547.874 36.7761889,547.874 37.1231511,547.540254 C37.1550855,547.509533 37.1837592,547.481951 37.2085012,547.447711 C39.949292,544.351644 45,542.975477 45,537.815777 C45,535.064108 42.7794607,533 40.0417386,533 C38.6533142,533 36.8541547,533.794656 36.5000959,535.132969 C36.1458453,533.794656 34.3468776,533 32.9583573,533 C30.2204434,533 28,535.064108 28,537.815777 Z" id="Fill-1"></path>
    </g>
  </g>
</svg>
