<?xml version="1.0" encoding="UTF-8"?>
<!-- original viewBox="0 0 12 15" -->
<svg width="24px" height="24px" viewBox="-6 -4.5 24 24" version="1.1" xmlns="http://www.w3.org/2000/svg" xmlns:xlink="http://www.w3.org/1999/xlink">
  <!-- Generator: Sketch 48.2 (47327) - http://www.bohemiancoding.com/sketch -->
  <desc>Created with Sketch.</desc>
  <defs></defs>
  <g id="Symbols" stroke="none" stroke-width="1"  fill-rule="evenodd">
    <g id="menu_global" transform="translate(-23.000000, -12.000000)"  fill-rule="nonzero">
      <path d="M27.2905028,26.2182411 L27.2905028,25.4364821 L30.3407822,25.4364821 L33.3910615,25.4364821 L33.3910615,19.5000001 L33.3910615,13.5635181 L30.3407822,13.5635181 L27.2905028,13.5635181 L27.2905028,12.7817592 L27.2905028,12 L31.1452515,12 L35,12 L35,19.5000001 L35,27 L31.1452515,27 L27.2905028,27 L27.2905028,26.2182411 Z M27.9692731,21.9185669 L27.4163902,21.3811063 L27.9742101,20.8388523 C28.2810112,20.5406125 28.526709,20.2914269 28.5202051,20.2851077 C28.5137011,20.2787871 27.2689945,20.2736158 25.7541899,20.2736158 L23,20.2736158 L23,19.5081434 L23,18.7426711 L25.7541899,18.7426711 C27.2689945,18.7426711 28.5137011,18.7374998 28.5202051,18.7311792 C28.5267089,18.72486 28.2809969,18.47566 27.9741783,18.1774034 L27.4163265,17.635118 L27.9735247,17.0936496 L28.5307229,16.5521812 L30.0391045,18.0179141 C30.8687144,18.8240665 31.5474862,19.4946698 31.5474862,19.5081434 C31.5474862,19.529561 28.5525146,22.4560262 28.5305963,22.4560262 C28.5259541,22.4560262 28.2733586,22.2141695 27.9692731,21.9185669 Z" id="Shape"></path>
    </g>
  </g>
</svg>
