<?xml version="1.0" encoding="UTF-8"?>
<!-- original viewBox="0 0 12 15" -->
<svg width="24px" height="24px" viewBox="-6 -4.5 24 24" version="1.1" xmlns="http://www.w3.org/2000/svg" xmlns:xlink="http://www.w3.org/1999/xlink">
  <!-- Generator: Sketch 48.2 (47327) - http://www.bohemiancoding.com/sketch -->
  <desc>Created with Sketch.</desc>
  <defs></defs>
  <g id="Symbols" stroke="none" stroke-width="1"  fill-rule="evenodd">
    <g id="LoggedInAs" transform="translate(-230.000000, -12.000000)" fill-rule="nonzero">
      <g id="Group-2" transform="translate(230.000000, 9.000000)">
        <path d="M4.29050279,17.2182411 L4.29050279,16.4364821 L7.34078225,16.4364821 L10.3910615,16.4364821 L10.3910615,10.5000001 L10.3910615,4.56351814 L7.34078225,4.56351814 L4.29050279,4.56351814 L4.29050279,3.7817592 L4.29050279,3 L8.14525152,3 L12,3 L12,10.5000001 L12,18 L8.14525152,18 L4.29050279,18 L4.29050279,17.2182411 Z M3.57821309,12.9185669 L4.131096,12.3811063 L3.57327606,11.8388523 C3.26647495,11.5406125 3.02077716,11.2914269 3.02728102,11.2851077 C3.03378502,11.2787871 4.27849166,11.2736158 5.79329631,11.2736158 L8.54748616,11.2736158 L8.54748616,10.5081434 L8.54748616,9.74267109 L5.79329631,9.74267109 C4.27849166,9.74267109 3.03378502,9.73749976 3.02728102,9.73117924 C3.02077729,9.72486002 3.26648929,9.47566003 3.57330784,9.17740336 L4.13115968,8.63511803 L3.57396147,8.09364964 L3.01676326,7.55218125 L1.50838163,9.01791411 C0.678771753,9.82406653 0,10.4946698 0,10.5081434 C0,10.529561 2.99497153,13.4560262 3.01688983,13.4560262 C3.02153202,13.4560262 3.27412759,13.2141695 3.57821309,12.9185669 Z" id="Shape" transform="translate(6.000000, 10.500000) scale(-1, 1) translate(-6.000000, -10.500000) "></path>
      </g>
    </g>
  </g>
</svg>
