<?xml version="1.0" encoding="UTF-8"?>
<!-- original viewBox="0 0 10 14" -->
<svg width="24px" height="24px" viewBox="-7 -5 24 24" version="1.1" xmlns="http://www.w3.org/2000/svg" xmlns:xlink="http://www.w3.org/1999/xlink">
  <!-- Generator: Sketch 48.2 (47327) - http://www.bohemiancoding.com/sketch -->
  <desc>Created with Sketch.</desc>
  <g id="Symbols" stroke="none" stroke-width="1"  fill-rule="evenodd">
    <g id="LocationSearch" transform="translate(-179.000000, -7.000000)">
      <g id="Page-1" transform="translate(179.000000, 7.000000)">
        <path d="M5,6.75 C6.03575,6.75 6.875,5.9105 6.875,4.875 C6.875,3.8395 6.03575,3 5,3 C3.9645,3 3.125,3.8395 3.125,4.875 C3.125,5.9105 3.9645,6.75 5,6.75 M5.16925,13.2445 C5.0735,13.33225 4.9265,13.33225 4.83075,13.2445 C1.61025,10.284 0,7.498 0,4.88675 C0,2.18775 2.2385,0 5,0 C7.7615,0 10,2.18775 10,4.88675 C10,7.498 8.38975,10.284 5.16925,13.2445" id="Fill-1" ></path>
      </g>
    </g>
  </g>
</svg>
