<?xml version="1.0" encoding="UTF-8"?>
<!-- original viewBox="0 0 20 19" -->
<svg width="24px" height="24px" viewBox="-2 -2.5 24 24" version="1.1" xmlns="http://www.w3.org/2000/svg" xmlns:xlink="http://www.w3.org/1999/xlink">
  <!-- Generator: Sketch 48.2 (47327) - http://www.bohemiancoding.com/sketch -->
  <desc>Created with Sketch.</desc>
  <defs></defs>
  <g id="Symbols" stroke="none" stroke-width="1" fill-rule="evenodd">
    <g id="Icon_Basemap">
      <path d="M20,0 L13.776875,4.00791035 L6.814375,0 L0,3.11677653 L0,19 L6.833125,15.1405076 L13.776875,19 L20,15.2889255 L20,0 Z M6.716875,2.10978906 L6.7775,2.14423204 L6.639375,2.14423204 L6.716875,2.10978906 Z M1.874375,4.32478576 L5.876875,2.49367172 L5.876875,13.5241925 L1.874375,15.7849044 L1.874375,4.32478576 Z M7.75125,13.5022742 L7.75125,2.70596572 L12.840625,5.63487146 L12.840625,16.3309822 L7.75125,13.5022742 Z M14.715625,5.63675016 L14.791875,5.58790376 L18.124375,3.44116678 L18.124375,14.2211931 L14.715625,16.2545814 L14.715625,5.63675016 Z" id="Page-1"></path>
    </g>
  </g>
</svg>
