<?xml version="1.0" encoding="UTF-8"?>
<!-- viewBox="0 0 20 21" -->
<svg width="24px" height="24px" viewBox="-2 -1.5 24 24" version="1.1" xmlns="http://www.w3.org/2000/svg" xmlns:xlink="http://www.w3.org/1999/xlink">
  <!-- Generator: Sketch 48.2 (47327) - http://www.bohemiancoding.com/sketch -->
  <desc>Created with Sketch.</desc>
  <defs></defs>
  <g id="Symbols" stroke="none" stroke-width="1" fill-rule="evenodd">
    <g id="Icon_Polygon" >
      <path d="M12.9755721,0 L12.8181761,0.156845171 L12.8181761,2.04055568 L4.69654044,4.17443424 L4.69654044,3.50047054 L4.5391444,3.34362536 L0.15739604,3.34362536 L0,3.50047054 L0,7.68415864 L0.15739604,7.84100381 L1.67170334,7.84100381 L1.41011112,13.8400179 L0.208707149,13.8400179 L0.0514685051,13.9967063 L0.0514685051,18.180708 L0.208707149,18.3373964 L4.5907703,18.3373964 L4.74816634,18.180708 L4.74816634,17.3685637 L15.3033022,19.6064307 L15.3033022,20.8431548 L15.4606982,21 L19.8424466,21 L20,20.8431548 L20,16.6594667 L19.8424466,16.5026216 L18.1697988,16.5026216 L16.1776372,4.49753529 L17.3574779,4.49753529 L17.5148739,4.34053327 L17.5148739,0.156845171 L17.3574779,0 L12.9755721,0 Z M2.93181604,7.84100381 L4.5391444,7.84100381 L4.69654044,7.68415864 L4.69654044,5.47201434 L12.8181761,3.33813578 L12.8181761,4.34053327 L12.9755721,4.49753529 L14.9014701,4.49753529 L16.8934744,16.5026216 L15.4606982,16.5026216 L15.3033022,16.6594667 L15.3033022,18.3234371 L4.74816634,16.0858839 L4.74816634,13.9967063 L4.5907703,13.8400179 L2.67053861,13.8400179 L2.93181604,7.84100381 Z" id="Page-1"></path>
    </g>
  </g>
</svg>
