<?xml version="1.0" encoding="UTF-8"?>
<!-- original viewBox="0 0 20 20" -->
<svg width="24px" height="24px" viewBox="-2 -2 24 24" version="1.1" xmlns="http://www.w3.org/2000/svg" xmlns:xlink="http://www.w3.org/1999/xlink">
  <!-- Generator: Sketch 48.2 (47327) - http://www.bohemiancoding.com/sketch -->
  <desc>Created with Sketch.</desc>
  <g id="Symbols" stroke="none" stroke-width="1"  fill-rule="evenodd">
    <g id="AdminPanel" transform="translate(-25.000000, -12.000000)">
      <g id="Page-1-Copy" transform="translate(25.000000, 12.000000)">
        <g id="Group-3">
          <path d="M19.56055,3.56055 L16.43955,0.43955 C16.15805,0.15805 15.77655,5e-05 15.37905,5e-05 L14.50005,5e-05 C14.22355,5e-05 14.00005,0.22405 14.00005,0.50005 L14.00005,5.50005 C14.00005,5.77605 13.77655,6.00005 13.50005,6.00005 L6.50005,6.00005 C6.22405,6.00005 6.00005,5.77605 6.00005,5.50005 L6.00005,0.50005 C6.00005,0.22405 5.77605,5e-05 5.50005,5e-05 L1.50005,5e-05 C0.67155,5e-05 5e-05,0.67155 5e-05,1.50005 L5e-05,18.50005 C5e-05,19.32855 0.67155,20.00005 1.50005,20.00005 L18.50005,20.00005 C19.32855,20.00005 20.00005,19.32855 20.00005,18.50005 L20.00005,4.62155 C20.00005,4.22355 19.84155,3.84205 19.56055,3.56055" id="Fill-1"></path>
        </g>
        <path d="M10.5,4 L11.5,4 C11.7765,4 12,3.776 12,3.5 L12,0.5 C12,0.224 11.7765,0 11.5,0 L10.5,0 C10.224,0 10,0.224 10,0.5 L10,3.5 C10,3.776 10.224,4 10.5,4" id="Fill-4"></path>
      </g>
    </g>
  </g>
</svg>
