<?xml version="1.0" encoding="UTF-8"?>
<!-- original viewBox="0 0 20 14" -->
<svg width="24px" height="24px" viewBox="-2 -5 24 24" version="1.1" xmlns="http://www.w3.org/2000/svg" xmlns:xlink="http://www.w3.org/1999/xlink">
  <!-- Generator: Sketch 48.2 (47327) - http://www.bohemiancoding.com/sketch -->
  <desc>Created with Sketch.</desc>
  <defs></defs>
  <g id="Page-1" stroke="none" stroke-width="1"  fill-rule="evenodd">
    <g id="05-MultipleData" transform="translate(-27.000000, -575.000000)" >
      <path d="M33.1621792,585.587669 L35.8598663,587.022667 L46.1580869,583.162418 C46.4823811,583.041439 46.8433994,583.210449 46.9613681,583.538642 C47.0808413,583.866905 46.9138387,584.232125 46.5895445,584.351651 L36.030767,588.309485 L36.030767,588.30817 C35.87074,588.368591 35.6874611,588.36167 35.5246985,588.275157 L33.1621792,587.018652 L33.1621792,585.587669 Z M30.498344,583.50293 L30.498344,587.486857 L31.5798945,587.04606 L32.661445,588.636364 L32.661445,584.652437 C32.661445,584.376358 32.8540929,584.144367 33.110615,584.09066 L31.5906997,583.281874 L30.9488818,582.939977 C30.6924281,582.99486 30.498344,583.225537 30.498344,583.50293 Z M28.1615385,578.995638 L38.7203844,575.039256 C38.9022271,574.971915 39.0935757,574.993924 39.2496363,575.08452 L46.6655916,579.030035 C46.970874,579.193509 47.0889794,579.576586 46.9275162,579.885608 C46.8528369,580.029841 46.7293289,580.132825 46.5895445,580.185009 L46.5895445,580.186463 L36.030767,584.142914 C35.8503604,584.210255 35.6576441,584.188246 35.5015835,584.097512 L28.5903973,580.419908 C28.3597258,580.844233 28.2470914,581.261707 28.2497585,581.670876 C28.252494,582.191472 28.4398078,582.722866 28.8021255,583.268032 L29.9976097,583.903932 L29.9976097,585.3336 L28.0856966,584.317253 L28.086996,584.315938 C28.0028108,584.27199 27.9281999,584.208801 27.8698652,584.126372 C27.2999226,583.324438 27.0054455,582.507277 27.0000429,581.676482 C26.996008,580.851085 27.2768076,580.038077 27.8576922,579.238911 C27.9335341,579.123469 28.0408343,579.04104 28.1615385,578.997091 L28.1615385,578.995638 Z" id="Icon_School"></path>
    </g>
  </g>
</svg>
