<?xml version="1.0" encoding="UTF-8"?>
<svg width="24px" height="24px" viewBox="-3 -3 24 24" version="1.1" xmlns="http://www.w3.org/2000/svg" xmlns:xlink="http://www.w3.org/1999/xlink">
  <!-- Generator: Sketch 48.2 (47327) - http://www.bohemiancoding.com/sketch -->
  <desc>Created with Sketch.</desc>
  <defs></defs>
  <g id="Page-1" stroke="none" stroke-width="1" fill-rule="evenodd">
    <g id="28-PublicDatasets" transform="translate(-556.000000, -285.000000)" fill-rule="nonzero">
      <path d="M567.192729,286.920328 C564.632291,284.359891 560.480766,284.359891 557.920328,286.920328 C555.359891,289.480766 555.359891,293.632291 557.920328,296.192729 C560.266983,298.539384 563.949134,298.733771 566.518839,296.779123 L567.23152,297.491805 L566.986489,297.736836 L571.887116,302.637463 C572.370498,303.120846 573.154081,303.120846 573.637463,302.637463 C574.120846,302.154081 574.120846,301.370498 573.637463,300.887116 L568.736836,295.986489 L568.491805,296.23152 L567.779123,295.518839 C569.733771,292.948919 569.539384,289.266983 567.192729,286.920328 Z M559.133848,294.97921 C557.243637,293.088998 557.243637,290.024059 559.133848,288.133848 C561.024059,286.243637 564.088998,286.243637 565.97921,288.133848 C567.869421,290.024059 567.869636,293.088998 565.97921,294.97921 C564.088783,296.869421 561.024059,296.869421 559.133848,294.97921 Z" id="Shape"></path>
    </g>
  </g>
</svg>
