<?xml version="1.0" encoding="UTF-8"?>
<!-- original viewbox viewBox="0 0 20 20" -->
<svg width="24px" height="24px" viewBox="-2 -2 24 24" version="1.1" xmlns="http://www.w3.org/2000/svg" xmlns:xlink="http://www.w3.org/1999/xlink">
  <!-- Generator: Sketch 48.2 (47327) - http://www.bohemiancoding.com/sketch -->
  <desc>Created with Sketch.</desc>
  <g id="Symbols" stroke="none" stroke-width="1"  fill-rule="evenodd">
    <g id="AdminPanel_SaveDisabled" transform="translate(-255.000000, -12.000000)">
      <g id="Page-1-Copy-3" transform="translate(255.000000, 12.000000)">
        <g id="Clip-2"></g>
        <path d="M16.1663362,12.3316145 C15.078666,12.3316145 14.0960789,12.7869448 13.3984667,13.5157623 L7.61599687,10.6250635 C7.64892817,10.4236494 7.66662435,10.2148912 7.66662435,10.0000391 C7.66662435,9.78518692 7.64892817,9.57767882 7.61533278,9.37501465 L13.3984277,6.48439392 C14.0960008,7.21438337 15.0787441,7.66971366 16.1662972,7.66971366 C18.2835881,7.66971366 19.9999609,5.95093558 19.9999609,3.83546232 C19.9999609,1.71873901 18.2835881,0 16.1662972,0 C14.0495141,0 12.3339616,1.71877808 12.3339616,3.83546232 C12.3339616,4.05031447 12.3516578,4.25172858 12.3840031,4.46048674 L6.60215831,7.35110747 C5.90388203,6.62111801 4.92184189,6.16582679 3.83358562,6.16582679 C1.71625568,6.16582679 0,7.8845658 0,10.0000391 C0,12.1167233 1.71633381,13.8355405 3.83358562,13.8355405 C4.92184189,13.8355405 5.90388203,13.3789601 6.60215831,12.6501816 L12.3840422,15.5408414 C12.3516969,15.7495215 12.3339616,15.9570296 12.3339616,16.1657877 C12.3339616,18.281261 14.0496704,20 16.1663362,20 C18.2836271,20 20,18.281261 20,16.1657877 C19.9999609,14.0504317 18.2836271,12.3316145 16.1663362,12.3316145" id="Fill-1" ></path>
      </g>
    </g>
  </g>
</svg>
