<?xml version="1.0" encoding="UTF-8"?>
<!-- original viewbox viewBox="0 0 18 14" -->
<svg width="24px" height="24px" viewBox="-3 -5 24 24" version="1.1" xmlns="http://www.w3.org/2000/svg" xmlns:xlink="http://www.w3.org/1999/xlink">
  <!-- Generator: Sketch 48.2 (47327) - http://www.bohemiancoding.com/sketch -->
  <desc>Created with Sketch.</desc>
  <defs></defs>
  <g id="Symbols" stroke="none" stroke-width="1" fill-rule="evenodd">
    <g id="menu_global" transform="translate(-96.000000, -13.000000)"  fill-rule="nonzero">
      <path d="M107.999915,20.0864004 L108.237736,20.0864004 C109.553678,20.0864004 110.620384,18.958165 110.620384,17.5668162 L110.620384,15.5195842 C110.620384,14.1280119 109.553467,13 108.237736,13 L107.999915,13 C106.68355,13 105.616843,14.1282354 105.616843,15.5195842 L105.616843,17.5668162 C105.616843,18.958165 106.683761,20.0864004 107.999915,20.0864004 Z M113.940575,24.25687 C113.864684,24.0787041 113.788159,24.0136523 113.682883,23.9354112 C112.907481,23.3642518 110.726294,22.0544973 108.164592,22.0388491 L108.164592,22.0370607 C108.156771,22.0370607 108.149372,22.0379549 108.14155,22.0379549 C108.134151,22.0379549 108.126753,22.0370607 108.118931,22.0370607 L108.118931,22.0388491 C105.557441,22.0544973 103.376042,23.3644754 102.601063,23.9354112 C102.495365,24.0136523 102.419473,24.0787041 102.342948,24.25687 C102.281009,24.4026219 102.283968,24.6994906 102.283968,24.6994906 L102.283946,27 L114,27 L113.999978,24.6994906 C113.999978,24.6994906 114.002937,24.4026219 113.940575,24.25687 Z M102.694077,16.2720392 L100.179518,16.2720392 L100.179518,13.6127389 L98.5143484,13.6127389 L98.5143484,16.2720392 L96,16.2720392 L96,18.032462 L98.5143484,18.032462 L98.5143484,20.6917623 L100.179518,20.6917623 L100.179518,18.032462 L102.694077,18.032462 L102.694077,16.2720392 Z" id="Shape"></path>
    </g>
  </g>
</svg>
