<?xml version="1.0" encoding="UTF-8"?>
<!-- original viewBox="0 0 19 23"  -->
<svg width="24px" height="24px" viewBox="-2.5 -0.5 24 24" version="1.1" xmlns="http://www.w3.org/2000/svg" xmlns:xlink="http://www.w3.org/1999/xlink">
  <!-- Generator: Sketch 48.2 (47327) - http://www.bohemiancoding.com/sketch -->
  <desc>Created with Sketch.</desc>
  <defs></defs>
  <g id="Page-1" stroke="none" stroke-width="1"  fill-rule="evenodd">
    <g id="05-MultipleData" transform="translate(-25.000000, -305.000000)"  fill-rule="nonzero">
      <g id="Group-5-Copy" transform="translate(25.000000, 305.000000)">
        <path d="M10.4237331,17.6209459 C10.8179899,17.259375 11.0670608,16.7422297 11.0670608,16.1665541 C11.0670608,15.0760135 10.1797297,14.1891892 9.08893581,14.1891892 C7.99890203,14.1891892 7.11182432,15.0760135 7.11182432,16.1665541 C7.11182432,16.7424831 7.36089527,17.2598818 7.75540541,17.6214527 C6.91900338,17.9984797 6.33445946,18.8384291 6.33445946,19.8141892 L6.33496622,21.3709459 C6.33496622,21.3719595 6.33876689,21.4429054 6.33876689,21.4786318 C6.33876689,22.4130912 8.44434122,22.4860642 9.08969595,22.4860642 C9.7347973,22.4860642 11.8401182,22.4133446 11.8401182,21.4786318 C11.8401182,21.4444257 11.8444257,21.3782939 11.8454392,21.3509291 L11.8454392,19.8144426 C11.8451858,18.8381757 11.2603885,17.9977196 10.4237331,17.6209459 Z M9.08893581,14.9756757 C9.74619932,14.9756757 10.2810811,15.5095439 10.2810811,16.1665541 C10.2810811,16.8228041 9.74619932,17.3566723 9.08893581,17.3566723 C8.43243243,17.3566723 7.89805743,16.8228041 7.89805743,16.1665541 C7.89805743,15.5095439 8.43243243,14.9756757 9.08893581,14.9756757 Z M11.0566723,21.3846284 C10.8679054,21.508277 10.1807432,21.6995777 9.08944257,21.6995777 C7.99940878,21.6995777 7.31224662,21.5085304 7.12246622,21.3848818 C7.1214527,21.3646115 7.12069257,21.348902 7.12069257,21.3483953 L7.12069257,19.8141892 C7.12069257,18.9210304 7.84712838,18.1943412 8.73978041,18.1943412 L9.44037162,18.1943412 C10.333277,18.1943412 11.0597128,18.920777 11.0597128,19.8141892 L11.060473,21.3253378 C11.0599662,21.3253378 11.0584459,21.3519426 11.0566723,21.3846284 Z" id="Shape"></path>
        <path d="M4.92795608,2.71798986 C4.92795608,3.79738176 4.05126689,4.67280405 2.97010135,4.67280405 C1.88994932,4.67280405 1.01351351,3.79738176 1.01351351,2.71798986 C1.01351351,1.63682432 1.88994932,0.760135135 2.97010135,0.760135135 C4.05101351,0.760388514 4.92795608,1.6370777 4.92795608,2.71798986 Z" id="Shape"></path>
        <path d="M17.34375,2.71798986 C17.34375,3.79738176 16.4675676,4.67280405 15.386402,4.67280405 C14.3047297,4.67280405 13.4290541,3.79738176 13.4290541,2.71798986 C13.4290541,1.63682432 14.3047297,0.760135135 15.386402,0.760135135 C16.4675676,0.760388514 17.34375,1.6370777 17.34375,2.71798986 Z" id="Shape"></path>
        <circle id="Oval" cx="9.01545608" cy="2.17423986" r="2.17423986"></circle>
        <path d="M5.23961149,7.69282095 C5.23961149,7.22179054 5.33817568,6.77381757 5.51427365,6.36663851 C5.109375,5.59560811 4.30160473,5.06756757 3.3714527,5.06756757 L2.42027027,5.06756757 C1.08572635,5.06756757 0,6.15278716 0,7.48682432 L0,9.57238176 C0.000760135135,9.57440878 0.00658783784,9.66359797 0.00810810811,9.72668919 C0.147212838,9.92711149 1.20177365,10.2699324 2.89535473,10.2699324 C3.94383446,10.2699324 4.74679054,10.1386824 5.24011824,9.99121622 L5.23961149,7.69282095 Z" id="Shape"></path>
        <path d="M18.142652,7.48682432 C18.142652,6.15278716 17.0576858,5.06756757 15.7241554,5.06756757 L14.7722128,5.06756757 C13.8714527,5.06756757 13.0857264,5.5629223 12.6689189,6.29442568 C12.8655405,6.72060811 12.9785473,7.19315878 12.9785473,7.69282095 L12.9785473,10.0125 C13.4766892,10.1508446 14.2502534,10.2699324 15.2472973,10.2699324 C16.9418919,10.2699324 17.9961993,9.92711149 18.1353041,9.72694257 C18.1363176,9.65777027 18.1431588,9.55413851 18.1431588,9.55413851 L18.142652,7.48682432 Z" id="Shape"></path>
        <path d="M5.8277027,10.1090372 C5.82820946,10.1105574 5.83530405,10.2375 5.83530405,10.3046453 C5.91714527,10.4711149 6.97221284,10.9178209 9.07905405,10.9178209 C11.1871622,10.9178209 12.2422297,10.4711149 12.3273649,10.2846284 C12.3240709,10.2324324 12.3326858,10.0920608 12.3326858,10.0920608 L12.3316723,7.79087838 C12.3316723,6.28910473 11.1103885,5.06756757 9.60886824,5.06756757 L8.55126689,5.06756757 C7.04949324,5.06756757 5.8277027,6.28910473 5.8277027,7.79087838 L5.8277027,10.1090372 Z" id="Shape"></path>
      </g>
    </g>
  </g>
</svg>
