<?xml version="1.0" encoding="UTF-8"?>
<!-- original viewBox="0 0 15 20" -->
<svg width="24px" height="24px" viewBox="-4.5 -2 24 24" version="1.1" xmlns="http://www.w3.org/2000/svg" xmlns:xlink="http://www.w3.org/1999/xlink">
  <!-- Generator: Sketch 48.2 (47327) - http://www.bohemiancoding.com/sketch -->
  <desc>Created with Sketch.</desc>
  <defs></defs>
  <g id="Page-1" stroke="none" stroke-width="1"  fill-rule="evenodd">
    <g id="05-MultipleData" transform="translate(-27.000000, -346.000000)"  fill-rule="nonzero">
      <g id="Group" transform="translate(27.000000, 346.000000)">
        <path d="M12.2571429,0 L2.74285714,0 C1.30714286,0 0.15,1.17857143 0.15,2.59285714 L0.15,12.7714286 C0.15,14.2071429 1.32857143,15.3642857 2.74285714,15.3642857 L12.2785714,15.3642857 C13.7142857,15.3642857 14.8714286,14.1857143 14.8714286,12.7714286 L14.8714286,2.59285714 C14.8714286,1.17857143 13.6928571,0 12.2571429,0 Z M1.43571429,2.59285714 C1.43571429,1.88571429 2.01428571,1.28571429 2.74285714,1.28571429 L12.2785714,1.28571429 C12.9857143,1.28571429 13.5857143,1.86428571 13.5857143,2.59285714 L13.5857143,7.24285714 C13.5857143,8.33571429 12.6857143,9.23571429 11.5928571,9.23571429 L3.42857143,9.23571429 C2.33571429,9.23571429 1.43571429,8.33571429 1.43571429,7.24285714 L1.43571429,2.59285714 Z M12.2571429,14.0785714 L2.74285714,14.0785714 C2.03571429,14.0785714 1.43571429,13.5 1.43571429,12.7714286 L1.43571429,9.27857143 C1.95,9.77142857 2.65714286,10.0928571 3.42857143,10.0928571 L11.5714286,10.0928571 C12.3428571,10.0928571 13.05,9.79285714 13.5642857,9.27857143 L13.5642857,12.7714286 C13.5642857,13.5 12.9857143,14.0785714 12.2571429,14.0785714 Z" id="Shape"></path>
        <path d="M3.6,10.8428571 C2.87142857,10.8428571 2.29285714,11.4214286 2.29285714,12.15 C2.29285714,12.8785714 2.87142857,13.4571429 3.6,13.4571429 C4.32857143,13.4571429 4.90714286,12.8785714 4.90714286,12.15 C4.90714286,11.4214286 4.30714286,10.8428571 3.6,10.8428571 Z M3.6,12.5785714 C3.36428571,12.5785714 3.17142857,12.3857143 3.17142857,12.15 C3.17142857,11.9142857 3.36428571,11.7214286 3.6,11.7214286 C3.83571429,11.7214286 4.02857143,11.9142857 4.02857143,12.15 C4.02857143,12.3857143 3.83571429,12.5785714 3.6,12.5785714 Z" id="Shape"></path>
        <path d="M11.4,10.8428571 C10.6714286,10.8428571 10.0928571,11.4214286 10.0928571,12.15 C10.0928571,12.8785714 10.6714286,13.4571429 11.4,13.4571429 C12.1285714,13.4571429 12.7071429,12.8785714 12.7071429,12.15 C12.7071429,11.4214286 12.1285714,10.8428571 11.4,10.8428571 Z M11.4,12.5785714 C11.1642857,12.5785714 10.9714286,12.3857143 10.9714286,12.15 C10.9714286,11.9142857 11.1642857,11.7214286 11.4,11.7214286 C11.6357143,11.7214286 11.8285714,11.9142857 11.8285714,12.15 C11.8285714,12.3857143 11.6357143,12.5785714 11.4,12.5785714 Z" id="Shape"></path>
        <path d="M3.15,15.7928571 L0.75,18.1714286 C0.492857143,18.4285714 0.492857143,18.8357143 0.75,19.0928571 C0.878571429,19.2214286 1.05,19.2857143 1.2,19.2857143 C1.37142857,19.2857143 1.54285714,19.2214286 1.65,19.0928571 L4.05,16.7142857 C4.30714286,16.4571429 4.30714286,16.05 4.05,15.7928571 C3.81428571,15.5357143 3.38571429,15.5357143 3.15,15.7928571 Z" id="Shape"></path>
        <path d="M11.85,15.7928571 C11.5928571,15.5357143 11.1857143,15.5357143 10.9285714,15.7928571 C10.6714286,16.05 10.6714286,16.4571429 10.9285714,16.7142857 L13.3071429,19.0928571 C13.4357143,19.2214286 13.6071429,19.2857143 13.7571429,19.2857143 C13.9285714,19.2857143 14.1,19.2214286 14.2071429,19.0928571 C14.4642857,18.8357143 14.4642857,18.4285714 14.2071429,18.1714286 L11.85,15.7928571 Z" id="Shape"></path>
      </g>
    </g>
  </g>
</svg>
