<?xml version="1.0" encoding="UTF-8"?>
<!-- original viewBox="0 0 10 13"-->
<svg width="24px" height="24px" viewBox="-7 -5.5 24 24" version="1.1" xmlns="http://www.w3.org/2000/svg" xmlns:xlink="http://www.w3.org/1999/xlink">
  <!-- Generator: Sketch 48.2 (47327) - http://www.bohemiancoding.com/sketch -->
  <desc>Created with Sketch.</desc>
  <g id="Symbols" stroke="none" stroke-width="1"  fill-rule="evenodd">
    <g id="Layer_Admin_Buttons" transform="translate(-31.000000, -1.000000)">
      <g id="Page-1" transform="translate(31.000000, 1.000000)">
        <g id="Group-3" transform="translate(0.000000, 0.020968)">

          <path d="M3.58678597,1.59359032 C3.79436661,1.15326774 4.27872145,0.838751613 4.83226984,0.838751613 C5.38581823,0.838751613 5.87017306,1.15326774 6.07775371,1.59359032 L3.58678597,1.59359032 Z M9.60662468,2.89359032 C9.46823758,2.13875161 8.75323758,1.59359032 7.89985048,1.59359032 L6.81581823,1.59359032 C6.58517306,0.796816129 5.777915,0.188751613 4.80920532,0.188751613 C3.84049565,0.188751613 3.0563021,0.775848387 2.80259242,1.59359032 L1.71856016,1.59359032 C0.888237581,1.59359032 0.150173065,2.13875161 0.0117859677,2.89359032 C-0.0804720968,3.43875161 0.380818226,3.96294516 1.00356016,3.96294516 L8.56872145,3.96294516 C9.23759242,3.96294516 9.69888274,3.45971935 9.60662468,2.89359032 Z" id="Fill-1" ></path>
        </g>
        <path d="M2.50273065,6.26933387 C2.50273065,5.99675323 2.73337581,5.78707581 3.03321452,5.78707581 C3.33305323,5.78707581 3.56369839,5.99675323 3.56369839,6.26933387 L3.56369839,10.9241726 C3.56369839,11.1967532 3.33305323,11.4064306 3.03321452,11.4064306 C2.73337581,11.4064306 2.50273065,11.1967532 2.50273065,10.9241726 L2.50273065,6.26933387 Z M6.07773065,6.26933387 C6.07773065,5.99675323 6.30837581,5.78707581 6.60821452,5.78707581 C6.90805323,5.78707581 7.13869839,5.99675323 7.13869839,6.26933387 L7.13869839,10.9241726 C7.13869839,11.1967532 6.90805323,11.4064306 6.60821452,11.4064306 C6.30837581,11.4064306 6.07773065,11.1967532 6.07773065,10.9241726 L6.07773065,6.26933387 Z M0.772891935,11.9096565 C0.772891935,12.3919145 1.21111774,12.8112694 1.76466613,12.8112694 L7.94595645,12.8112694 C8.47644032,12.8112694 8.93773065,12.4128823 8.93773065,11.9096565 L8.93773065,4.40320484 L0.772891935,4.40320484 L0.772891935,11.9096565 Z" id="Fill-4" ></path>
      </g>
    </g>
  </g>
</svg>
