<?xml version="1.0" encoding="UTF-8"?>
<!-- original  viewBox="0 0 12 14" -->
<svg width="24px" height="24px" viewBox="-6 -5 24 24" version="1.1" xmlns="http://www.w3.org/2000/svg" xmlns:xlink="http://www.w3.org/1999/xlink">
  <!-- Generator: Sketch 48.2 (47327) - http://www.bohemiancoding.com/sketch -->
  <desc>Created with Sketch.</desc>
  <defs></defs>
  <g id="Symbols" stroke="none" stroke-width="1" fill-rule="evenodd">
    <g id="LoggedInAs" transform="translate(-141.000000, -13.000000)" fill-rule="nonzero">
      <path d="M146.854499,20.0864004 L147.098084,20.0864004 C148.445919,20.0864004 149.538477,18.958165 149.538477,17.5668162 L149.538477,15.5195842 C149.538477,14.1280119 148.445702,13 147.098084,13 L146.854499,13 C145.506231,13 144.413672,14.1282354 144.413672,15.5195842 L144.413672,17.5668162 C144.413672,18.958165 145.506447,20.0864004 146.854499,20.0864004 Z M152.939135,24.25687 C152.861405,24.0787041 152.783024,24.0136523 152.675198,23.9354112 C151.881003,23.3642518 149.646953,22.0544973 147.023168,22.0388491 L147.023168,22.0370607 C147.015157,22.0370607 147.007578,22.0379549 146.999567,22.0379549 C146.991989,22.0379549 146.984411,22.0370607 146.976399,22.0370607 L146.976399,22.0388491 C144.35283,22.0544973 142.118564,23.3644754 141.324803,23.9354112 C141.216543,24.0136523 141.138812,24.0787041 141.060432,24.25687 C140.996992,24.4026219 141.000023,24.6994906 141.000023,24.6994906 L141,27 L153,27 L152.999977,24.6994906 C152.999977,24.6994906 153.003008,24.4026219 152.939135,24.25687 Z" id="Shape-Copy"></path>
    </g>
  </g>
</svg>
