<?xml version="1.0" encoding="UTF-8"?>
<!-- original  viewBox="0 0 11 18" -->
<svg width="24px" height="24px" viewBox="-6.5 -3 24 24" version="1.1" xmlns="http://www.w3.org/2000/svg" xmlns:xlink="http://www.w3.org/1999/xlink">
  <!-- Generator: Sketch 48.2 (47327) - http://www.bohemiancoding.com/sketch -->
  <desc>Created with Sketch.</desc>
  <defs></defs>
  <g id="Page-1" stroke="none" stroke-width="1"  fill-rule="evenodd">
    <g id="04-AccessToGPs_InfoOpen" transform="translate(-1182.000000, -327.000000)" fill-rule="nonzero">
      <g id="Group" transform="translate(1182.000000, 327.000000)">
        <path d="M8.20939167,1.7332 C8.20939167,2.6914 7.43937639,3.4666 6.48802917,3.4666 C5.53648333,3.4666 4.76666667,2.6914 4.76666667,1.7332 C4.76666667,0.7752 5.53648333,0 6.48802917,0 C7.43937639,0 8.20939167,0.7752 8.20939167,1.7332 Z" id="Shape"></path>
        <path d="M10.5057333,9.134 C10.1694847,8.9816 7.95060139,7.8712 7.95060139,7.8712 C7.95060139,7.8712 7.16390278,6.182 6.75694861,5.2578 C6.37382778,4.3876 6.09815556,4.161 5.55336528,4.161 L4.71284306,4.161 C4.27252222,4.161 4.11125,4.3234 3.84213194,4.4758 L1.56962361,6.4224 C1.3710125,6.5374 1.24330556,6.71 1.16624444,6.9538 L0.678654167,10.2478 C0.608147222,10.7728 0.883819444,10.9962 1.19643333,11.0604 C1.44866944,11.1146 1.82841389,10.986 1.90567361,10.6168 C1.96625,10.3122 2.42663056,7.6172 2.42663056,7.6172 L3.90946111,6.4696 C3.66417639,7.614 3.41531667,8.8664 3.33448194,9.2932 C3.19326944,10.0212 3.55295417,10.5728 3.83875556,11.006 C4.09754583,11.3988 7.45288194,16.7244 7.89340139,17.303 C8.3369,17.8822 8.74067639,18.1698 9.355775,17.8244 C9.87335556,17.5332 9.78596667,16.8698 9.50036389,16.3786 C9.21476111,15.8874 5.82923611,10.3426 5.82923611,10.3426 L6.39726389,7.8712 C6.39726389,7.8712 6.79051389,8.4366 6.99230278,8.7548 C7.08962222,8.904 7.19071528,8.9648 7.45625833,9.1102 C7.76887222,9.283 9.28526806,9.977 9.74564861,10.187 C10.1557806,10.3698 10.6634306,10.441 10.8654181,10.0752 C11.0703847,9.7128 10.8117931,9.2762 10.5057333,9.134 Z" id="Shape"></path>
        <path d="M3.01511528,11.3752 L2.32931111,13.8094 C2.32931111,13.8094 0.897126389,15.895 0.500301389,16.4772 C0.201193056,16.9172 -0.0242305556,17.4522 0.486994444,17.8416 C1.06197361,18.2782 1.52255278,17.7094 1.81828472,17.3708 C2.09058056,17.0628 3.20002222,15.502 3.51263611,15.1058 C3.72117778,14.8384 3.83537917,14.6152 3.92634306,14.3916 C3.98334444,14.2428 4.20876806,13.6266 4.35315833,13.227 L3.01511528,11.3752 Z" id="Shape"></path>
      </g>
    </g>
  </g>
</svg>
