
<svg width="100px" height="36px" viewBox="0 0 100 36" version="1.1" xmlns="http://www.w3.org/2000/svg" xmlns:xlink="http://www.w3.org/1999/xlink">
  <!-- Generator: Sketch 48.2 (47327) - http://www.bohemiancoding.com/sketch -->
  <desc>Created with Sketch.</desc>
  <defs>
    <polygon id="path-1" points="0.0807327586 0.0298850575 16.9313075 0.0298850575 16.9313075 23.784569 0.0807327586 23.784569"></polygon>
    <polygon id="path-3" points="0.0260488506 0.0788936782 5.48122126 0.0788936782 5.48122126 6.32183908 0.0260488506 6.32183908"></polygon>
    <polygon id="path-5" points="0.0088362069 0.0788936782 5.46257184 0.0788936782 5.46257184 6.32183908 0.0088362069 6.32183908"></polygon>
  </defs>
  <g id="Page-1" stroke="none" stroke-width="1" fill="none" fill-rule="evenodd">
    <g id="01-OpeningScreen_IntroOpen" transform="translate(-1164.000000, -785.000000)">
      <g id="Page-1" transform="translate(1164.000000, 785.000000)">
        <g id="Group-3" transform="translate(83.045977, 0.113793)">
          <mask id="mask-2" fill="white">
            <use xlink:href="#path-1"></use>
          </mask>
          <g id="Clip-2"></g>
          <path d="M14.3745546,0.0312643678 L2.63691092,0.0298275862 C0.722112069,0.0298275862 0.0807327586,1.06675287 0.0807327586,2.75252874 C0.0807327586,4.44548851 0.722112069,5.47767241 2.63691092,5.47767241 L5.53130747,5.47307471 L5.53130747,20.8187644 C5.53130747,22.91 6.65731322,23.784569 8.5074569,23.784569 C10.3484052,23.784569 11.4811638,22.91 11.4811638,20.8187644 L11.4811638,5.47221264 L14.3745546,5.47810345 C16.2893534,5.47810345 16.9313075,4.44692529 16.9313075,2.75396552 C16.9313075,1.06818966 16.2893534,0.0312643678 14.3745546,0.0312643678" id="Fill-1" fill="#12394C" mask="url(#mask-2)"></path>
        </g>
        <path d="M71.6913362,2.35788793 C70.0893247,2.35788793 69.1136063,2.99639368 69.1136063,4.85242816 L69.1194971,15.3476868 C69.1194971,18.2518534 68.0483764,19.6150718 66.0023994,19.6150718 C64.0186351,19.6150718 62.9023994,18.2518534 62.9023994,15.3476868 L62.9023994,6.13260057 C62.9023994,4.27699713 61.9095833,3.63849138 60.3147557,3.63849138 C58.7127443,3.63849138 57.7492385,4.24222701 57.7492385,6.09682471 L57.7413362,15.1182328 C57.7413362,20.463204 60.0667672,24.0432328 66.0023994,24.0432328 C71.9746695,24.0432328 74.2667672,20.4371983 74.2667672,15.0909339 L74.2667672,4.85242816 C74.2667672,2.99639368 73.2857328,2.35788793 71.6913362,2.35788793" id="Fill-4" fill="#12394C"></path>
        <path d="M78.3130172,23.7505029 L85.1558333,23.7466236 C86.9374425,23.7466236 87.534569,22.7987787 87.534569,21.2236351 C87.534569,19.6552443 86.9374425,18.6907328 85.1558333,18.6907328 L81.3355747,18.6918822 L81.3361494,3.84389368 C81.3361494,1.88168103 80.2733621,1.20696839 78.5469253,1.20696839 C76.8117241,1.20696839 75.7552586,1.88168103 75.7552586,3.84389368 L75.7552586,21.0265086 C75.7552586,22.7190374 76.3973563,23.7505029 78.3130172,23.7505029" id="Fill-6" fill="#12394C"></path>
        <path d="M48.1524569,9.54670977 L48.9656753,9.54670977 C51.5685489,9.54670977 51.9011638,10.9701293 51.9011638,12.1840661 C51.9011638,13.5140948 51.5169684,14.8113649 48.9597845,14.8113649 L48.1524569,14.8113649 L48.1524569,9.54670977 Z M50.1087787,18.6232902 C54.745704,18.6232902 56.8112213,15.9428305 56.8112213,12.2096408 C56.8112213,8.45116379 54.7780316,5.7346408 49.0234339,5.7346408 L45.7653879,5.7346408 C43.9959914,5.7346408 43.4034626,6.68650862 43.4034626,8.2504454 L43.4034626,21.5093534 C43.4034626,23.2768822 44.332773,23.8850718 45.8579167,23.8850718 C47.3763075,23.8850718 48.3105029,23.2768822 48.3105029,21.5093534 L48.3076293,18.6232902 L50.1087787,18.6232902 Z" id="Fill-8" fill="#12394C"></path>
        <path d="M28.4048563,13.2024425 C29.6683621,13.2024425 30.0906322,12.5222701 30.0906322,11.4056034 C30.0906322,10.2938218 29.6683621,9.59899425 28.4048563,9.59899425 L21.0311494,9.59899425 C19.7680747,9.59899425 19.3447989,10.2795977 19.3447989,11.3958333 C19.3447989,12.5076149 19.7680747,13.1920977 21.0311494,13.1920977 L22.713477,13.2024425 L22.7100287,21.9586207 C22.7100287,23.391954 23.4817241,23.8860632 24.7501149,23.8860632 C26.0114655,23.8860632 26.7890517,23.391954 26.7890517,21.9586207 L26.7866092,13.2024425 L28.4048563,13.2024425 Z" id="Fill-10" fill="#12394C"></path>
        <path d="M33.6960345,16.8710057 L35.3783621,10.8825 L36.860546,16.8705747 L33.6960345,16.8710057 Z M40.5335345,23.886092 C42.1218966,23.886092 43.1049425,23.0057759 42.6458908,21.3020402 C42.2427299,19.8049138 39.085546,10.3888218 39.085546,10.3888218 C38.2229023,7.86037356 37.5059483,7.27229885 35.4914368,7.27229885 C33.4954598,7.27229885 32.8195977,7.87359195 31.8841092,10.3916954 C31.8841092,10.3916954 28.473908,19.7247414 28.0325287,21.2935632 C27.5450287,23.0267529 28.4513506,23.8866667 30.0397126,23.8866667 C31.3091092,23.8866667 31.998046,23.4271839 32.5280747,21.8540517 L32.9282184,20.6326437 L37.6259195,20.6359483 L37.9762069,21.8826437 C38.3877011,23.4514655 39.2397126,23.886092 40.5335345,23.886092 Z" id="Fill-12" fill="#12394C"></path>
        <path d="M14.5479023,18.3106609 L15.7286494,13.5572126 L17.0592529,18.3106609 L14.5479023,18.3106609 Z M18.6710345,13.1656897 C18.0075287,11.2217241 17.4172989,10.6916954 15.8177299,10.6916954 C14.2336782,10.6916954 13.6968966,11.1684195 12.9546552,13.1677011 C12.9546552,13.1677011 10.4022126,20.5796264 10.0519253,21.8254598 C9.66485632,23.2016092 10.3851149,23.8836494 11.6456034,23.8836494 C12.6527874,23.8836494 13.1997701,23.519569 13.6200287,22.2702874 L13.9381322,21.2971552 L17.6635632,21.3008908 L17.9453161,22.2957184 C18.2713218,23.5421264 18.9474713,23.886092 19.9756322,23.886092 C21.2351149,23.886092 22.0171552,23.1883908 21.652069,21.8353736 C21.3325287,20.6467241 18.6710345,13.1656897 18.6710345,13.1656897 Z" id="Fill-14" fill="#12394C"></path>
        <path d="M5.48593391,15.3780891 C6.37788793,15.3780891 6.81452586,15.8331178 7.21280172,16.1443247 C7.88061782,16.6660201 8.68765805,16.4492098 9.17989943,15.7190374 C9.67458333,14.9865661 9.58507184,14.2755029 8.99728448,13.7112787 C8.24283046,12.9851293 7.05087644,12.4190374 5.41352011,12.4190374 C2.46912356,12.4190374 1.43678161e-05,14.747773 1.43678161e-05,18.2450431 C1.43678161e-05,21.6640086 2.19656609,24.0415948 5.24067529,24.0415948 C6.92501437,24.0415948 8.11854885,23.4181753 8.89412356,22.6716236 C9.45102011,22.135704 9.71725575,21.2450431 8.97487069,20.485704 C8.44886494,19.9464799 7.83866379,19.6845546 6.99599138,20.3246408 C6.60691092,20.6193247 6.20820402,20.9710489 5.37530172,20.9710489 C4.09283046,20.9710489 3.23650862,19.8431753 3.23650862,18.2440374 C3.23650862,16.5676006 4.13047414,15.3780891 5.48593391,15.3780891" id="Fill-16" fill="#12394C"></path>
        <path d="M36.6389224,29.0892529 C37.2143534,29.0892529 37.5524282,28.7731609 37.5524282,28.2435632 C37.5524282,27.736523 37.2143534,27.398592 36.6389224,27.398592 L33.8438075,27.398592 C33.3696695,27.398592 32.9317385,27.7254598 32.9317385,28.311092 L32.9317385,34.5212931 C32.9317385,35.1628161 33.3133477,35.4902586 33.8438075,35.4902586 C34.3732615,35.4902586 34.7560201,35.1628161 34.7560201,34.5212931 L34.7560201,32.2102299 L36.4021408,32.2102299 C36.9765661,32.2102299 37.3146408,31.8837931 37.3146408,31.3649713 C37.3146408,30.8468678 36.9765661,30.52 36.4021408,30.52 L34.7560201,30.52 L34.7560201,29.0892529 L36.6389224,29.0892529 Z" id="Fill-18" fill="#12394C"></path>
        <g id="Group-22" transform="translate(37.931034, 29.280460)">
          <mask id="mask-4" fill="white">
            <use xlink:href="#path-3"></use>
          </mask>
          <g id="Clip-21"></g>
          <path d="M4.60191092,0.0788936782 C4.08409483,0.0788936782 3.72360632,0.484928161 3.72360632,0.991393678 L3.72360632,3.72975575 C3.72360632,4.39527299 3.21512931,4.6991523 2.75320402,4.6991523 C2.2908477,4.6991523 1.78380747,4.39527299 1.78380747,3.72975575 L1.78380747,0.991393678 C1.78380747,0.484928161 1.42418103,0.0788936782 0.905359195,0.0788936782 C0.387255747,0.0788936782 0.0260488506,0.484928161 0.0260488506,0.991393678 L0.0260488506,3.97788793 C0.0260488506,5.60159483 1.28854885,6.32185345 2.75320402,6.32185345 C4.21872126,6.32185345 5.48122126,5.60159483 5.48122126,3.97788793 L5.48122126,0.991393678 C5.48122126,0.484928161 5.12058908,0.0788936782 4.60191092,0.0788936782" id="Fill-20" fill="#12394C" mask="url(#mask-4)"></path>
        </g>
        <path d="M47.1429167,29.427342 L46.6580029,29.427342 L46.6580029,28.2770546 C46.6580029,27.7704454 46.2973707,27.364842 45.7791236,27.364842 C45.2604454,27.364842 44.8998132,27.7704454 44.8998132,28.2770546 L44.8998132,29.427342 L44.697227,29.427342 C44.1340086,29.427342 43.7728017,29.6748994 43.7728017,30.2381178 C43.7728017,30.8017672 44.1340086,31.0498994 44.697227,31.0498994 L44.8998132,31.0498994 L44.8998132,34.5776293 C44.8998132,35.0839511 45.2604454,35.490273 45.7791236,35.490273 C46.2973707,35.490273 46.6580029,35.0839511 46.6580029,34.5776293 L46.6580029,31.0498994 L47.1429167,31.0498994 C47.705704,31.0498994 48.0663362,30.8017672 48.0663362,30.2381178 C48.0663362,29.6748994 47.705704,29.427342 47.1429167,29.427342" id="Fill-23" fill="#12394C"></path>
        <g id="Group-27" transform="translate(48.419540, 29.280460)">
          <mask id="mask-6" fill="white">
            <use xlink:href="#path-5"></use>
          </mask>
          <g id="Clip-26"></g>
          <path d="M4.58268678,0.0788936782 C4.06458333,0.0788936782 3.70380747,0.484928161 3.70380747,0.991393678 L3.70380747,3.72975575 C3.70380747,4.39527299 3.19676724,4.6991523 2.7345546,4.6991523 C2.27306034,4.6991523 1.76602011,4.39527299 1.76602011,3.72975575 L1.76602011,0.991393678 C1.76602011,0.484928161 1.4049569,0.0788936782 0.88670977,0.0788936782 C0.368462644,0.0788936782 0.0088362069,0.484928161 0.0088362069,0.991393678 L0.0088362069,3.97788793 C0.0088362069,5.60159483 1.26932471,6.32185345 2.7345546,6.32185345 C4.20007184,6.32185345 5.46257184,5.60159483 5.46257184,3.97788793 L5.46257184,0.991393678 C5.46257184,0.484928161 5.10079023,0.0788936782 4.58268678,0.0788936782" id="Fill-25" fill="#12394C" mask="url(#mask-6)"></path>
        </g>
        <path d="M57.443908,29.2468247 C56.9472126,29.2468247 56.5186207,29.5731178 56.2263793,29.9231178 C56.1133046,29.6636351 55.8212069,29.3593247 55.3476437,29.3593247 C54.8289655,29.3593247 54.4687644,29.7653592 54.4687644,30.2718247 L54.4687644,34.5775718 C54.4687644,35.0838937 54.8289655,35.4902155 55.3476437,35.4902155 C55.8658908,35.4902155 56.2263793,35.0838937 56.2263793,34.5775718 L56.2263793,32.4361925 C56.2263793,31.53375 56.4755172,31.3318822 57.2403161,31.1057328 C57.8834195,30.9140661 58.3449138,30.7675144 58.3449138,30.1593247 C58.3449138,29.6073132 57.8941954,29.2468247 57.443908,29.2468247" id="Fill-28" fill="#12394C"></path>
        <path d="M60.0921264,31.7936782 C60.0921264,31.3988506 60.5428448,30.733908 61.2303448,30.733908 C61.9174138,30.733908 62.3685632,31.3988506 62.3685632,31.7936782 L60.0921264,31.7936782 Z M64.1257471,32.2331897 C64.1257471,30.7005747 63.0105172,29.2468391 61.2753161,29.2468391 C59.4717241,29.2468391 58.1984483,30.733908 58.1984483,32.4239943 C58.1984483,34.1938218 59.3822126,35.6022989 61.2753161,35.6022989 C62.6049138,35.6022989 64.0372414,35.0389368 64.0372414,34.1826149 C64.0372414,33.7314655 63.6975862,33.4277299 63.3031897,33.4277299 C62.8980172,33.4277299 62.3685632,33.9795977 61.5004598,33.9795977 C60.3730172,33.9795977 60.0921264,33.3708333 60.0921264,32.9994253 L63.270431,32.9994253 C63.8330747,32.9994253 64.1257471,32.8521552 64.1257471,32.2331897 Z" id="Fill-30" fill="#12394C"></path>
        <path d="M73.4348276,33.4051437 C72.9621264,33.4051437 72.7820977,33.7775575 71.6438793,33.7775575 C70.3931609,33.7775575 69.7394253,32.6843103 69.7394253,31.4100287 C69.7394253,30.1705172 70.3256322,28.9761207 71.8019253,28.9761207 C72.511408,28.9761207 72.9621264,29.3593103 73.3902874,29.3593103 C73.8639943,29.3593103 74.1792241,28.9311494 74.1792241,28.4912069 C74.1792241,27.533592 72.8608333,27.2185057 71.7563793,27.2185057 C69.3460345,27.2185057 67.7786494,28.9761207 67.7786494,31.4100287 C67.7786494,33.709454 69.1977586,35.6022701 71.7226149,35.6022701 C72.7253448,35.6022701 74.2466092,35.2527011 74.2466092,34.2506897 C74.2466092,34.0127586 74.1562356,33.4051437 73.4348276,33.4051437" id="Fill-32" fill="#12394C"></path>
        <path d="M75.5888793,29.3593534 C75.0697701,29.3593534 74.7085632,29.7653879 74.7085632,30.2718534 L74.7085632,34.5776006 C74.7085632,35.0839224 75.0697701,35.4902443 75.5888793,35.4902443 C76.1069828,35.4902443 76.4671839,35.0839224 76.4671839,34.5776006 L76.4671839,30.2718534 C76.4671839,29.7653879 76.1069828,29.3593534 75.5888793,29.3593534" id="Fill-34" fill="#12394C"></path>
        <path d="M75.5888793,26.7453017 C75.0134483,26.7453017 74.5397414,27.2066523 74.5397414,27.7928592 C74.5397414,28.3787787 75.0134483,28.8411351 75.5888793,28.8411351 C76.1638793,28.8411351 76.6360057,28.3787787 76.6360057,27.7928592 C76.6360057,27.2066523 76.1638793,26.7453017 75.5888793,26.7453017" id="Fill-36" fill="#12394C"></path>
        <path d="M80.1637213,29.427342 L79.6782328,29.427342 L79.6782328,28.2770546 C79.6782328,27.7704454 79.3176006,27.364842 78.7999282,27.364842 C78.2811063,27.364842 77.9206178,27.7704454 77.9206178,28.2770546 L77.9206178,29.427342 L77.7180316,29.427342 C77.1548132,29.427342 76.7951868,29.6748994 76.7951868,30.2381178 C76.7951868,30.8017672 77.1548132,31.0498994 77.7180316,31.0498994 L77.9206178,31.0498994 L77.9206178,34.5776293 C77.9206178,35.0839511 78.2811063,35.490273 78.7999282,35.490273 C79.3176006,35.490273 79.6782328,35.0839511 79.6782328,34.5776293 L79.6782328,31.0498994 L80.1637213,31.0498994 C80.7273707,31.0498994 81.0881466,30.8017672 81.0881466,30.2381178 C81.0881466,29.6748994 80.7273707,29.427342 80.1637213,29.427342" id="Fill-38" fill="#12394C"></path>
        <path d="M82.2941954,29.3593534 C81.7756609,29.3593534 81.4138793,29.7653879 81.4138793,30.2718534 L81.4138793,34.5776006 C81.4138793,35.0839224 81.7756609,35.4902443 82.2941954,35.4902443 C82.8124425,35.4902443 83.1725,35.0839224 83.1725,34.5776006 L83.1725,30.2718534 C83.1725,29.7653879 82.8124425,29.3593534 82.2941954,29.3593534" id="Fill-40" fill="#12394C"></path>
        <path d="M82.2941954,26.7453017 C81.7187644,26.7453017 81.2456322,27.2066523 81.2456322,27.7928592 C81.2456322,28.3787787 81.7187644,28.8411351 82.2941954,28.8411351 C82.8681897,28.8411351 83.3418966,28.3787787 83.3418966,27.7928592 C83.3418966,27.2066523 82.8681897,26.7453017 82.2941954,26.7453017" id="Fill-42" fill="#12394C"></path>
        <path d="M85.66375,31.7936782 C85.66375,31.3988506 86.1140374,30.733908 86.8015374,30.733908 C87.4894684,30.733908 87.9401868,31.3988506 87.9401868,31.7936782 L85.66375,31.7936782 Z M89.6973707,32.2331897 C89.6973707,30.7005747 88.5817098,29.2468391 86.8469397,29.2468391 C85.0429167,29.2468391 83.7705029,30.733908 83.7705029,32.425 C83.7705029,34.1938218 84.9538362,35.6022989 86.8469397,35.6022989 C88.1769684,35.6022989 89.6072845,35.0389368 89.6072845,34.1826149 C89.6072845,33.7314655 89.2697845,33.4277299 88.8753879,33.4277299 C88.4696408,33.4277299 87.9401868,33.9795977 87.0730891,33.9795977 C85.9456466,33.9795977 85.66375,33.3708333 85.66375,32.9994253 L88.8410489,32.9994253 C89.4046983,32.9994253 89.6973707,32.8521552 89.6973707,32.2331897 Z" id="Fill-44" fill="#12394C"></path>
        <path d="M91.8734914,31.1728017 C91.8734914,30.9140374 92.0984914,30.8018247 92.3359914,30.8018247 C92.8762213,30.8018247 93.3953305,31.2407615 93.7451868,31.2407615 C94.1611351,31.2407615 94.4766523,30.9368822 94.4766523,30.4975144 C94.4766523,29.5853017 93.1589799,29.246796 92.4474856,29.246796 C91.0395833,29.246796 90.1822557,30.2381753 90.1822557,31.2407615 C90.1822557,32.1880316 90.6671695,32.52625 91.5696121,32.897658 C92.5492098,33.3034052 92.9328305,33.3374569 92.9328305,33.6978017 C92.9328305,33.8779741 92.7979167,34.0466523 92.4361351,34.0466523 C91.6811063,34.0466523 91.2984914,33.5397557 90.7464799,33.5397557 C90.352658,33.5397557 90.0253592,33.8894684 90.0253592,34.3857328 C90.0253592,35.1628879 91.2653017,35.6022557 92.369181,35.6022557 C93.5763649,35.6022557 94.6230603,34.8700718 94.6230603,33.630704 C94.6230603,31.7036925 91.8734914,31.8607328 91.8734914,31.1728017" id="Fill-46" fill="#12394C"></path>
      </g>
    </g>
  </g>
</svg>
