
<svg width="180px" height="32px" viewBox="0 0 180 32" version="1.1" xmlns="http://www.w3.org/2000/svg" xmlns:xlink="http://www.w3.org/1999/xlink">
  <!-- Generator: Sketch 48.2 (47327) - http://www.bohemiancoding.com/sketch -->
  <desc>Created with Sketch.</desc>
  <defs></defs>
  <g id="Page-1" stroke="none" stroke-width="1" fill="none" fill-rule="evenodd" opacity="0.15">
    <g id="06-Edit" transform="translate(-30.000000, -838.000000)" fill="#3BCAE2">
      <g id="Logo_Tombolo" transform="translate(30.000000, 838.000000)">
        <g id="Shape">
          <path d="M27.4472097,6.68368316 L11.2772835,6.68368316 C10.1152195,6.57452771 9.22708296,5.59939162 9.22708296,4.4326504 C9.22708296,3.26590919 10.1152195,2.29077309 11.2772835,2.18161765 L27.4472097,2.18161765 C28.6092736,2.29077309 29.4974102,3.26590919 29.4974102,4.4326504 C29.4974102,5.59939162 28.6092736,6.57452771 27.4472097,6.68368316 Z" fill-rule="nonzero"></path>
          <path d="M19.3523264,22.8474866 C18.1031656,22.8474866 17.0905207,21.8352252 17.0905207,20.5865374 L17.0905207,4.42273396 C17.1997175,3.26111003 18.175223,2.37330974 19.3424062,2.37330974 C20.5095893,2.37330974 21.4850948,3.26111003 21.5942916,4.42273396 L21.5942916,20.5865374 C21.5943394,21.8275208 20.5937321,22.8366008 19.3523264,22.8474866 Z" fill-rule="nonzero"></path>
          <path d="M35.938901,6.68368316 C35.3390328,6.68368316 34.7637337,6.44547669 34.3395629,6.02146647 C33.915392,5.59745624 33.6770953,5.02237497 33.6770953,4.42273396 C33.6768256,3.82417846 33.9203839,3.2513171 34.3516689,2.83610294 C34.4498177,2.72746343 34.5634716,2.63390154 34.6889557,2.55844251 L35.0857637,2.34028075 C35.2179942,2.28023339 35.3584059,2.24013095 35.5024122,2.22128342 C36.2251803,2.07830979 36.9713231,2.30952647 37.4864522,2.83610294 C37.9196858,3.24997306 38.1636159,3.82370891 38.1610258,4.42273396 C38.1610562,4.72268436 38.100314,5.01953377 37.9824622,5.29538102 C37.8614152,5.56714872 37.6935243,5.81553323 37.4864522,6.02919786 C37.2773561,6.22753168 37.0357661,6.38853069 36.7721978,6.50518717 C36.5085541,6.61787044 36.2255856,6.67848359 35.938901,6.68368316 Z" fill-rule="nonzero"></path>
          <path d="M2.78559219,6.68368316 C2.48552817,6.68371359 2.18856631,6.62299439 1.91261458,6.50518717 C1.63769946,6.37301458 1.39418585,6.18368682 1.19836017,5.94986631 C0.78515316,5.54665641 0.543514113,4.99962225 0.523786566,4.42273396 C0.512839522,4.2708787 0.512839522,4.11843279 0.523786566,3.96657754 C0.57219746,3.82963581 0.631924763,3.69695873 0.702350168,3.56991979 C0.756782838,3.4321682 0.823170756,3.29944263 0.90075417,3.17326203 C0.989702529,3.05223148 1.08930128,2.93939563 1.19836017,2.83610294 C1.29670685,2.72767075 1.41032839,2.6341355 1.53564698,2.55844251 C1.65224516,2.47109883 1.77878252,2.3978681 1.91261458,2.34028075 C2.05261109,2.28267388 2.19923337,2.24270113 2.34910339,2.22128342 C2.63707041,2.1619628 2.93411397,2.1619628 3.222081,2.22128342 C3.36608726,2.24013095 3.50649897,2.28023339 3.6387294,2.34028075 C3.78098499,2.39315734 3.91468554,2.46666479 4.0355374,2.55844251 C4.16119149,2.63366096 4.27487911,2.72725061 4.37282421,2.83610294 C5.2223675,3.7003169 5.2223675,5.08565235 4.37282421,5.94986631 C4.16661146,6.1611626 3.91581478,6.32377993 3.6387294,6.42585561 C3.37759132,6.57536265 3.08585193,6.66352954 2.78559219,6.68368316 Z" fill-rule="nonzero"></path>
          <path d="M19.3721668,31.4747928 C19.0741147,31.4735236 18.7786129,31.4198164 18.4991892,31.3161297 C17.9452046,31.0811364 17.5041666,30.6402654 17.2690844,30.0864906 C17.1653584,29.8071728 17.1116308,29.5117828 17.1103612,29.2138436 C17.1136189,28.6199241 17.3485126,28.0507004 17.7650944,27.6272126 C18.668271,26.7979305 20.0562221,26.7979305 20.9593988,27.6272126 C21.3759806,28.0507004 21.6108743,28.6199241 21.614132,29.2138436 C21.6132787,29.5118211 21.5595379,29.8072834 21.4554088,30.0864906 C21.340082,30.3613903 21.171512,30.6107793 20.9593988,30.8203075 C20.7491333,31.0315466 20.4998165,31.1999402 20.225304,31.3161297 C19.9522439,31.4179382 19.663585,31.4716219 19.3721668,31.4747928 Z" fill-rule="nonzero"></path>
          <path d="M44.8075599,31.7326203 L44.6289963,31.7326203 C41.6951845,31.7774221 38.8760752,30.5948638 36.8528029,28.4706674 C34.8295306,26.3464709 33.7861303,23.4738513 33.9747013,20.5468717 C33.7861303,17.619892 34.8295306,14.7472724 36.8528029,12.6230759 C38.8760752,10.4988795 41.6951845,9.31632121 44.6289963,9.36112299 L44.8075599,9.36112299 C47.7413717,9.31632121 50.5604809,10.4988795 52.5837532,12.6230759 C54.6070255,14.7472724 55.6504259,17.619892 55.4618548,20.5468717 C55.6504259,23.4738513 54.6070255,26.3464709 52.5837532,28.4706674 C50.5604809,30.5948638 47.7413717,31.7774221 44.8075599,31.7326203 Z M44.8075599,13.4863636 L44.6289963,13.4863636 C40.6609162,13.4863636 38.5379934,16.1043048 38.5379934,20.5468717 C38.5379934,24.9894385 40.601395,27.7660428 44.6289963,27.7660428 L44.8075599,27.7660428 C48.7756399,27.7660428 50.8985627,25.1481016 50.8985627,20.7055348 C50.8985627,16.2629679 48.8550015,13.5855281 44.8075599,13.5855281 L44.8075599,13.4863636 Z" fill-rule="nonzero"></path>
          <path d="M63.1599301,9.81727941 L63.8345037,11.6815709 L65.0844489,11.0072527 C66.8029805,10.0269401 68.740767,9.49493265 70.7191225,9.46028743 C72.9487634,9.40859882 75.1014039,10.2765017 76.6712426,11.8600668 L76.9291678,12.177393 L78.3973574,11.3840775 C80.3672799,10.1748893 82.6149746,9.49195807 84.9248491,9.40078877 C87.15449,9.34910016 89.3071305,10.2170031 90.8769692,11.8005682 C92.3037178,13.4410918 93.0177211,15.5822906 92.8610092,17.7504345 L92.8610092,31.3756283 L88.5556423,31.3756283 L88.5556423,18.1669251 C88.7079525,16.9821331 88.3871859,15.7850581 87.6628243,14.835 C86.6089649,13.9362168 85.23038,13.5127496 83.8534675,13.6648596 C82.1113991,13.7074223 80.393774,14.0844834 78.7941654,14.7755013 C78.5362402,14.9143316 78.3973574,14.9936631 78.476719,15.4894853 C78.6143802,16.4615893 78.6740916,17.4431372 78.6552826,18.4247527 L78.6552826,31.4747928 L74.2507138,31.4747928 L74.2507138,18.1669251 C74.4030239,16.9821331 74.0822574,15.7850581 73.3578958,14.835 C72.3207368,13.9642257 70.9755646,13.5493829 69.6279005,13.6846925 C67.9101036,13.7164537 66.2163578,14.0941981 64.6479601,14.7953342 C64.4074146,14.8779844 64.2581783,15.1183296 64.2908329,15.370488 L64.2908329,31.4946257 L59.8267428,31.4946257 L59.8267428,9.81727941 L63.1599301,9.81727941 Z" fill-rule="nonzero"></path>
          <path d="M98.4163213,31.4747928 L98.4163213,0 L102.900252,0 L102.900252,11.7609024 L103.872431,11.2254144 C105.663383,10.1141382 107.71741,9.49816362 109.824551,9.44045455 C115.102098,9.44045455 119.248741,13.9226872 119.248741,20.6262032 C119.248741,27.3297193 115.379863,31.7326203 109.645988,31.7326203 C107.544257,31.6420912 105.498375,31.028559 103.693868,29.9476604 L102.543124,29.3328409 L101.789189,31.3161297 L98.4163213,31.4747928 Z M102.900252,25.6637567 C102.863158,25.9265106 103.010707,26.1805269 103.257379,26.2785762 C104.984216,27.1951353 106.898189,27.7039779 108.852372,27.7660428 C112.324442,27.7660428 114.665609,26.1595789 114.665609,20.7055348 C114.665609,15.548984 112.403803,13.7441912 108.892053,13.7441912 C106.930709,13.7935213 105.005336,14.2814592 103.257379,15.1721591 C103.016833,15.2548092 102.867597,15.4951544 102.900252,15.7473128 L102.900252,25.6637567 Z" fill-rule="nonzero"></path>
          <path d="M133.137022,31.7326203 L132.958458,31.7326203 C130.024646,31.7774221 127.205537,30.5948638 125.182265,28.4706674 C123.158992,26.3464709 122.115592,23.4738513 122.304163,20.5468717 C122.115592,17.619892 123.158992,14.7472724 125.182265,12.6230759 C127.205537,10.4988795 130.024646,9.31632121 132.958458,9.36112299 L133.137022,9.36112299 C136.070833,9.31632121 138.889943,10.4988795 140.913215,12.6230759 C142.936487,14.7472724 143.979888,17.619892 143.791317,20.5468717 C143.979888,23.4738513 142.936487,26.3464709 140.913215,28.4706674 C138.889943,30.5948638 136.070833,31.7774221 133.137022,31.7326203 Z M133.137022,13.4863636 L132.958458,13.4863636 C128.990378,13.4863636 126.867455,16.1043048 126.867455,20.5468717 C126.867455,24.9894385 128.851495,27.6073797 132.958458,27.6073797 L133.137022,27.6073797 C137.105102,27.6073797 139.228025,24.9894385 139.228025,20.5468717 C139.228025,16.1043048 137.184463,13.5855281 133.137022,13.5855281 L133.137022,13.4863636 Z" fill-rule="nonzero"></path>
          <path d="M156.449492,30.7608088 C155.185388,31.2700472 153.84319,31.5585105 152.481412,31.613623 C151.29038,31.712357 150.118268,31.2692252 149.290689,30.4073304 C148.463111,29.5454355 148.068223,28.3565897 148.215726,27.1710561 L148.215726,0 L152.699656,0 L152.699656,27.7660428 L156.429651,28.3808623 L156.449492,30.7608088 Z" fill-rule="nonzero"></path>
          <path d="M169.167188,31.7326203 L168.968784,31.7326203 C166.034973,31.7774221 163.215863,30.5948638 161.192591,28.4706674 C159.169319,26.3464709 158.125918,23.4738513 158.31449,20.5468717 C158.154629,17.6365352 159.210836,14.790506 161.230841,12.6885401 C163.250847,10.5865742 166.053276,9.41740729 168.968784,9.46028743 L169.167188,9.46028743 C172.101,9.41548565 174.920109,10.5980439 176.943382,12.7222404 C178.966654,14.8464368 180.010054,17.7190565 179.821483,20.6460361 C179.981344,23.5563726 178.925137,26.4024018 176.905132,28.5043677 C174.885126,30.6063335 172.082697,31.7755005 169.167188,31.7326203 Z M169.167188,13.4863636 L168.968784,13.4863636 C165.000704,13.4863636 162.877782,16.1043048 162.877782,20.5468717 C162.877782,24.9894385 164.921343,27.7660428 168.968784,27.7660428 L169.167188,27.7660428 C173.135268,27.7660428 175.258191,25.1481016 175.258191,20.7055348 C175.258191,16.2629679 173.135268,13.5855281 169.167188,13.5855281 L169.167188,13.4863636 Z" fill-rule="nonzero"></path>
        </g>
      </g>
    </g>
  </g>
</svg>
