
<svg width="180px" height="26px" viewBox="0 0 180 26" version="1.1" xmlns="http://www.w3.org/2000/svg" xmlns:xlink="http://www.w3.org/1999/xlink">
  <!-- Generator: Sketch 48.2 (47327) - http://www.bohemiancoding.com/sketch -->
  <desc>Created with Sketch.</desc>
  <defs>
    <polygon id="path-1" points="0.0583069923 0.0215836526 12.2281665 0.0215836526 12.2281665 17.1777443 0.0583069923 17.1777443"></polygon>
    <polygon id="path-3" points="0.0188130587 0.0569787676 3.9586598 0.0569787676 3.9586598 4.56577267 0.0188130587 4.56577267"></polygon>
    <polygon id="path-5" points="0.00638170498 0.0569787676 3.94519077 0.0569787676 3.94519077 4.56577267 0.00638170498 4.56577267"></polygon>
  </defs>
  <g id="Page-1" stroke="none" stroke-width="1" fill="none" fill-rule="evenodd">
    <g id="16-MapHoverBox" transform="translate(-30.000000, -841.000000)">
      <g id="Logo_Tombolo" transform="translate(30.000000, 838.000000)">
        <g transform="translate(0.000000, 8.000000)" fill="#FFFFFF" id="Shape">
          <path d="M13.9623611,3.2 L6.30430557,3.2 C5.75395364,3.14827598 5.33333333,2.68620133 5.33333333,2.13333333 C5.33333333,1.58046534 5.75395364,1.11839069 6.30430557,1.06666667 L13.9623611,1.06666667 C14.512713,1.11839069 14.9333333,1.58046534 14.9333333,2.13333333 C14.9333333,2.68620133 14.512713,3.14827598 13.9623611,3.2 Z" fill-rule="nonzero"></path>
          <path d="M9.60469897,10.6666667 C9.01300007,10.6666667 8.53333333,10.1920342 8.53333333,9.6065453 L8.53333333,2.0276075 C8.58505736,1.48294141 9.04713201,1.06666667 9.6,1.06666667 C10.152868,1.06666667 10.6149426,1.48294141 10.6666667,2.0276075 L10.6666667,9.6065453 C10.6666893,10.1884217 10.1927245,10.6615625 9.60469897,10.6666667 Z" fill-rule="nonzero"></path>
          <path d="M18.142768,3.2 C17.8573682,3.2 17.5836577,3.08717123 17.3818495,2.88633473 C17.1800414,2.68549824 17.0666668,2.41310549 17.0666668,2.12907979 C17.0665384,1.84556826 17.1824164,1.574227 17.3876092,1.37755684 C17.4343056,1.3260987 17.4883788,1.28178221 17.5480805,1.24604032 L17.7368702,1.14270592 C17.7997816,1.11426391 17.8665854,1.09526901 17.9350994,1.0863417 C18.2789714,1.01862087 18.6339644,1.12813886 18.8790478,1.37755684 C19.0851677,1.57359038 19.2012226,1.84534585 19.1999903,2.12907979 C19.2000048,2.27115417 19.1711054,2.41175973 19.1150349,2.54241742 C19.0574443,2.67114279 18.9775667,2.78879249 18.8790478,2.88999678 C18.779566,2.98393949 18.6646245,3.06019821 18.5392264,3.11545367 C18.4137924,3.16882718 18.2791642,3.19753718 18.142768,3.2 Z" fill-rule="nonzero"></path>
          <path d="M1.07749528,3.19999999 C0.935065635,3.2000144 0.794108471,3.17127301 0.663124064,3.11550904 C0.532631699,3.05294524 0.417044508,2.96332708 0.324093068,2.8526483 C0.127958492,2.66178918 0.0132610874,2.40285094 0.00389712728,2.12978127 C-0.00129904243,2.05790069 -0.00129904243,1.98574053 0.00389712728,1.91385995 C0.0268760458,1.84903868 0.0552264578,1.78623608 0.0886548763,1.72610228 C0.114492116,1.66089766 0.146004084,1.59807211 0.182830153,1.53834461 C0.225050754,1.48105488 0.272326718,1.42764411 0.324093068,1.37875059 C0.370774712,1.32742428 0.42470679,1.28314944 0.484191038,1.24732022 C0.539536022,1.20597614 0.599598774,1.17131243 0.663124064,1.1440535 C0.729575393,1.11678533 0.799171742,1.09786425 0.870309673,1.0877262 C1.00699731,1.05964682 1.14799325,1.05964682 1.28468089,1.0877262 C1.35303551,1.09664766 1.41968392,1.11563012 1.48244897,1.1440535 C1.54997261,1.16908259 1.61343547,1.2038773 1.67079952,1.24732022 C1.73044302,1.28292482 1.78440646,1.32722541 1.83089749,1.37875059 C2.23414528,1.78782566 2.23414528,2.44357323 1.83089749,2.8526483 C1.73301569,2.95266525 1.61397148,3.02964006 1.48244897,3.07795751 C1.35849608,3.14872656 1.22001783,3.19046029 1.07749528,3.19999999 Z" fill-rule="nonzero"></path>
          <path d="M9.60469897,16 C9.4635185,15.9993942 9.32354604,15.9737595 9.19118943,15.9242694 C8.92877961,15.812106 8.71986999,15.6016762 8.60851689,15.3373569 C8.55938426,15.2040371 8.53393473,15.0630461 8.53333333,14.9208383 C8.53487643,14.6373577 8.64614022,14.3656646 8.84346549,14.1635319 C9.27127963,13.7677116 9.92872037,13.7677116 10.3565345,14.1635319 C10.5538598,14.3656646 10.6651236,14.6373577 10.6666667,14.9208383 C10.6662625,15.0630644 10.6408067,15.2040899 10.5914831,15.3373569 C10.5368554,15.4685677 10.4570077,15.5876023 10.3565345,15.6876111 C10.2569366,15.7884365 10.1388409,15.8688116 10.0088106,15.9242694 C9.87946825,15.9728631 9.74273713,15.9984865 9.60469897,16 Z" fill-rule="nonzero"></path>
          <path d="M22.4442317,15.9994144 L22.3557683,15.9994144 C20.9023076,16.0207734 19.5056726,15.4569949 18.5033088,14.4442953 C17.500945,13.4315956 16.9840266,12.062089 17.0774479,10.6666667 C16.9840266,9.27124428 17.500945,7.90173774 18.5033088,6.88903808 C19.5056726,5.87633842 20.9023076,5.31255989 22.3557683,5.33391891 L22.4442317,5.33391891 C23.8976924,5.31255989 25.2943274,5.87633842 26.2966912,6.88903808 C27.299055,7.90173774 27.8159734,9.27124428 27.7225521,10.6666667 C27.8159734,12.062089 27.299055,13.4315956 26.2966912,14.4442953 C25.2943274,15.4569949 23.8976924,16.0207734 22.4442317,15.9994144 Z M22.4442317,7.30060602 L22.3557683,7.30060602 C20.3899134,7.30060602 19.338181,8.54869593 19.338181,10.6666667 C19.338181,12.7846374 20.3604256,14.1083691 22.3557683,14.1083691 L22.4442317,14.1083691 C24.4100866,14.1083691 25.461819,12.8602792 25.461819,10.7423085 C25.461819,8.62433774 24.4494037,7.34788216 22.4442317,7.34788216 L22.4442317,7.30060602 Z" fill-rule="nonzero"></path>
          <path d="M30.4133756,5.53544475 L30.7398921,6.43541565 L31.3449079,6.10989426 C32.1767355,5.63665666 33.1146898,5.37983458 34.0722809,5.3631099 C35.1515026,5.33815766 36.1934536,5.75713044 36.9533087,6.52158307 L37.0781533,6.67476961 L37.7888068,6.29180327 C38.742316,5.70807787 39.8302764,5.37839863 40.948334,5.33438742 C42.0275557,5.30943518 43.0695067,5.72840796 43.8293618,6.4928606 C44.5199565,7.28480947 44.8655583,8.31845503 44.7897044,9.36510815 L44.7897044,15.942555 L42.7057609,15.942555 L42.7057609,9.56616548 C42.7794842,8.99421718 42.6242223,8.41633936 42.2736068,7.95770685 C41.7635031,7.52382688 41.0962213,7.31940166 40.429749,7.3928315 C39.5865288,7.41337827 38.7551401,7.59540132 37.9808753,7.92898438 C37.8560308,7.99600349 37.7888068,8.03430012 37.8272205,8.27365408 C37.8938532,8.74292904 37.9227555,9.216763 37.9136513,9.69062954 L37.9136513,15.9904258 L35.7816908,15.9904258 L35.7816908,9.56616548 C35.855414,8.99421718 35.7001521,8.41633936 35.3495366,7.95770685 C34.8475165,7.53734793 34.1964076,7.33708609 33.5440925,7.40240566 C32.7126206,7.41773809 31.8927902,7.600091 31.1336325,7.93855853 C31.0172004,7.97845718 30.9449649,8.0944818 30.9607709,8.21620913 L30.9607709,16 L28.8,16 L28.8,5.53544475 L30.4133756,5.53544475 Z" fill-rule="nonzero"></path>
          <path d="M48,15.87 L48,0 L50.0662857,0 L50.0662857,5.93 L50.5142857,5.66 C51.3395925,5.09968006 52.2861294,4.78909767 53.2571429,4.76 C55.6891429,4.76 57.6,7.02 57.6,10.4 C57.6,13.78 55.8171429,16 53.1748571,16 C52.2063372,15.954354 51.2635534,15.6450031 50.432,15.1 L49.9017143,14.79 L49.5542857,15.79 L48,15.87 Z M50.0662857,12.94 C50.0491922,13.0724839 50.1171859,13.2005622 50.2308571,13.25 C51.0266186,13.712141 51.9086161,13.9687061 52.8091429,14 C54.4091429,14 55.488,13.19 55.488,10.44 C55.488,7.84 54.4457143,6.93 52.8274286,6.93 C51.9236019,6.95487289 51.0363513,7.2008975 50.2308571,7.65 C50.1200089,7.69167327 50.0512378,7.81285845 50.0662857,7.94 L50.0662857,12.94 Z" fill-rule="nonzero"></path>
          <path d="M66.1775651,15.9994144 L66.0891016,15.9994144 C64.6356409,16.0207734 63.2390059,15.4569949 62.2366421,14.4442953 C61.2342783,13.4315956 60.7173599,12.062089 60.8107813,10.6666667 C60.7173599,9.27124428 61.2342783,7.90173774 62.2366421,6.88903808 C63.2390059,5.87633842 64.6356409,5.31255989 66.0891016,5.33391891 L66.1775651,5.33391891 C67.6310257,5.31255989 69.0276608,5.87633842 70.0300245,6.88903808 C71.0323883,7.90173774 71.5493067,9.27124428 71.4558854,10.6666667 C71.5493067,12.062089 71.0323883,13.4315956 70.0300245,14.4442953 C69.0276608,15.4569949 67.6310257,16.0207734 66.1775651,15.9994144 Z M66.1775651,7.30060602 L66.0891016,7.30060602 C64.1232467,7.30060602 63.0715144,8.54869593 63.0715144,10.6666667 C63.0715144,12.7846374 64.0544418,14.0327273 66.0891016,14.0327273 L66.1775651,14.0327273 C68.1434199,14.0327273 69.1951523,12.7846374 69.1951523,10.6666667 C69.1951523,8.54869593 68.182737,7.34788216 66.1775651,7.34788216 L66.1775651,7.30060602 Z" fill-rule="nonzero"></path>
          <path d="M75.7333333,15.5616931 C75.2438527,15.8193135 74.7241329,15.9652452 74.1968314,15.9931262 C73.7356455,16.0430751 73.2817855,15.8188976 72.9613343,15.3828706 C72.6408831,14.9468436 72.4879764,14.3454143 72.5450918,13.7456606 L72.5450918,0 L74.281339,0 L74.281339,14.0466604 L75.7256508,14.3576936 L75.7333333,15.5616931 Z" fill-rule="nonzero"></path>
          <path d="M83.2491011,15.9994118 L83.1508989,15.9994118 C81.6987763,16.0208659 80.3034271,15.4545775 79.3019861,14.4373695 C78.3005452,13.4201614 77.7841027,12.044558 77.877438,10.6429234 C77.7983132,9.2492586 78.3210944,7.8863885 79.3209185,6.87982592 C80.3207427,5.87326334 81.7078356,5.31338762 83.1508989,5.33392152 L83.2491011,5.33392152 C84.7012237,5.31246741 86.0965729,5.8787558 87.0980139,6.89596387 C88.0994548,7.91317193 88.6158973,9.28877535 88.522562,10.69041 C88.6016868,12.0840747 88.0789056,13.4469448 87.0790815,14.4535074 C86.0792573,15.46007 84.6921644,16.0199457 83.2491011,15.9994118 Z M83.2491011,7.26187746 L83.1508989,7.26187746 C81.1868539,7.26187746 80.1360898,8.5155237 80.1360898,10.6429234 C80.1360898,12.770323 81.147573,14.0999478 83.1508989,14.0999478 L83.2491011,14.0999478 C85.2131461,14.0999478 86.2639102,12.8463016 86.2639102,10.7189019 C86.2639102,8.59150226 85.2131461,7.30936406 83.2491011,7.30936406 L83.2491011,7.26187746 Z" fill-rule="nonzero"></path>
        </g>
        <g id="Page-1" transform="translate(107.000000, 3.000000)">
          <g id="Group-3" transform="translate(59.977650, 0.082184)">
            <mask id="mask-2" fill="white">
              <use xlink:href="#path-1"></use>
            </mask>
            <g id="Clip-2"></g>
            <path d="M10.3816228,0.0225798212 L1.90443566,0.0215421456 C0.521525383,0.0215421456 0.0583069923,0.770432631 0.0583069923,1.98793742 C0.0583069923,3.21063059 0.521525383,3.95609674 1.90443566,3.95609674 L3.99483317,3.95277618 L3.99483317,15.0357743 C3.99483317,16.5461111 4.80805955,17.1777443 6.14427443,17.1777443 C7.47384818,17.1777443 8.29195163,16.5461111 8.29195163,15.0357743 L8.29195163,3.95215358 L10.3816228,3.95640805 C11.764533,3.95640805 12.2281665,3.21166826 12.2281665,1.9889751 C12.2281665,0.771470307 11.764533,0.0225798212 10.3816228,0.0225798212" id="Fill-1" fill="#FFFFFF" mask="url(#mask-2)"></path>
          </g>
          <path d="M51.7770761,1.70291906 C50.6200678,1.70291906 49.9153823,2.1640621 49.9153823,3.50453145 L49.9196368,11.0844405 C49.9196368,13.1818942 49.1460496,14.1664408 47.6683996,14.1664408 C46.2356809,14.1664408 45.4295107,13.1818942 45.4295107,11.0844405 L45.4295107,4.42910042 C45.4295107,3.08894237 44.7124769,2.62779933 43.5606569,2.62779933 C42.4036486,2.62779933 41.7077834,3.06383062 41.7077834,4.40326229 L41.7020761,10.9187237 C41.7020761,14.7789807 43.3815541,17.364557 47.6683996,17.364557 C51.9817058,17.364557 53.6371097,14.7601988 53.6371097,10.8990078 L53.6371097,3.50453145 C53.6371097,2.1640621 52.9285848,1.70291906 51.7770761,1.70291906" id="Fill-4" fill="#FFFFFF"></path>
          <path d="M56.5594013,17.153141 L61.5014352,17.1503392 C62.7881529,17.1503392 63.2194109,16.4657846 63.2194109,15.3281809 C63.2194109,14.1954542 62.7881529,13.4988625 61.5014352,13.4988625 L58.7423595,13.4996927 L58.7427746,2.77614543 C58.7427746,1.35899186 57.9752059,0.871699393 56.7283349,0.871699393 C55.4751341,0.871699393 54.7121312,1.35899186 54.7121312,2.77614543 L54.7121312,15.1858118 C54.7121312,16.4081936 55.1758685,17.153141 56.5594013,17.153141" id="Fill-6" fill="#FFFFFF"></path>
          <path d="M34.7767744,6.89484595 L35.3640988,6.89484595 C37.2439519,6.89484595 37.4841739,7.92287117 37.4841739,8.79960329 C37.4841739,9.7601796 37.2066994,10.6970969 35.3598443,10.6970969 L34.7767744,10.6970969 L34.7767744,6.89484595 Z M36.1896735,13.4501541 C39.538564,13.4501541 41.0303265,11.5142664 41.0303265,8.81807391 C41.0303265,6.1036183 39.5619117,4.14168503 35.4058134,4.14168503 L33.0527802,4.14168503 C31.7748827,4.14168503 31.3469452,4.82914511 31.3469452,5.95865501 L31.3469452,15.534533 C31.3469452,16.8110816 32.0181138,17.2503297 33.1196065,17.2503297 C34.2162221,17.2503297 34.8909187,16.8110816 34.8909187,15.534533 L34.8888434,13.4501541 L36.1896735,13.4501541 Z" id="Fill-8" fill="#FFFFFF"></path>
          <path d="M20.5146185,9.53509738 C21.4271504,9.53509738 21.7321232,9.04386175 21.7321232,8.23738027 C21.7321232,7.43442688 21.4271504,6.93260696 20.5146185,6.93260696 L15.1891635,6.93260696 C14.2769428,6.93260696 13.9712436,7.4241539 13.9712436,8.23032407 C13.9712436,9.03327746 14.2769428,9.52762612 15.1891635,9.52762612 L16.4041778,9.53509738 L16.4016874,15.8590038 C16.4016874,16.894189 16.959023,17.2510457 17.875083,17.2510457 C18.7860584,17.2510457 19.3476485,16.894189 19.3476485,15.8590038 L19.3458844,9.53509738 L20.5146185,9.53509738 Z" id="Fill-10" fill="#FFFFFF"></path>
          <path d="M24.3360249,12.1846153 L25.5510393,7.85958333 L26.6215054,12.184304 L24.3360249,12.1846153 Z M29.2742193,17.2510664 C30.4213697,17.2510664 31.1313474,16.6152826 30.79981,15.3848068 C30.5086383,14.3035489 28.2284499,7.50303799 28.2284499,7.50303799 C27.6054294,5.67693646 27.0876293,5.25221584 25.6327043,5.25221584 C24.1911654,5.25221584 23.7030428,5.68648308 23.0274122,7.50511335 C23.0274122,7.50511335 20.5644891,14.2456466 20.2457152,15.3786845 C19.8936319,16.6304326 20.5481976,17.2514815 21.695348,17.2514815 C22.6121344,17.2514815 23.1096999,16.9196328 23.4924984,15.7834818 L23.7814911,14.9013538 L27.1742752,14.9037404 L27.4272605,15.8041315 C27.7244508,16.9371695 28.3397925,17.2510664 29.2742193,17.2510664 Z" id="Fill-12" fill="#FFFFFF"></path>
          <path d="M10.5068183,13.2243662 L11.3595801,9.79132024 L12.3205715,13.2243662 L10.5068183,13.2243662 Z M13.484636,9.50855364 C13.0054374,8.10457854 12.5791603,7.72178001 11.423916,7.72178001 C10.2798787,7.72178001 9.89220307,8.06608078 9.35613985,9.51000639 C9.35613985,9.51000639 7.51270913,14.8630635 7.25972382,15.7628321 C6.98017401,16.7567178 7.50036079,17.2493024 8.4107136,17.2493024 C9.1381242,17.2493024 9.53316731,16.9863554 9.83668742,16.0840964 L10.0664288,15.3812787 L12.7570179,15.3839767 L12.9605061,16.1024633 C13.1959547,17.0026469 13.6842848,17.2510664 14.4268455,17.2510664 C15.3364719,17.2510664 15.9012787,16.7471711 15.6376054,15.769992 C15.4068263,14.911523 13.484636,9.50855364 13.484636,9.50855364 Z" id="Fill-14" fill="#FFFFFF"></path>
          <path d="M3.96206338,11.1063977 C4.60625239,11.1063977 4.92160201,11.4350295 5.20924569,11.6597901 C5.69155731,12.0365701 6.2744197,11.8799848 6.62992736,11.3526381 C6.98719907,10.8236311 6.92255188,10.3100854 6.49803879,9.9025902 C5.95315533,9.37814895 5.09229965,8.96930476 3.90976453,8.96930476 C1.78325591,8.96930476 1.03767561e-05,10.6511694 1.03767561e-05,13.1769756 C1.03767561e-05,15.6462284 1.58640884,17.363374 3.78493215,17.363374 C5.00139927,17.363374 5.86339639,16.9131266 6.42353368,16.3739504 C6.82573675,15.9868973 7.01801804,15.3436422 6.48185105,14.7952307 C6.10195801,14.405791 5.66125718,14.2166228 5.05266044,14.6789072 C4.77165789,14.8917345 4.48370291,15.1457575 3.88216236,15.1457575 C2.95593311,15.1457575 2.33747845,14.3311822 2.33747845,13.1762492 C2.33747845,11.9654893 2.98312021,11.1063977 3.96206338,11.1063977" id="Fill-16" fill="#FFFFFF"></path>
          <path d="M26.461444,21.0089049 C26.877033,21.0089049 27.1211981,20.7806162 27.1211981,20.398129 C27.1211981,20.0319333 26.877033,19.787872 26.461444,19.787872 L24.4427498,19.787872 C24.1003169,19.787872 23.7840334,20.0239432 23.7840334,20.4468997 L23.7840334,24.932045 C23.7840334,25.3953672 24.05964,25.6318534 24.4427498,25.6318534 C24.8251333,25.6318534 25.1015701,25.3953672 25.1015701,24.932045 L25.1015701,23.2629438 L26.290435,23.2629438 C26.7052977,23.2629438 26.9494628,23.0271839 26.9494628,22.6524792 C26.9494628,22.2782934 26.7052977,22.0422222 26.290435,22.0422222 L25.1015701,22.0422222 L25.1015701,21.0089049 L26.461444,21.0089049 Z" id="Fill-18" fill="#FFFFFF"></path>
          <g id="Group-22" transform="translate(27.394636, 21.146999)">
            <mask id="mask-4" fill="white">
              <use xlink:href="#path-3"></use>
            </mask>
            <g id="Clip-21"></g>
            <path d="M3.32360233,0.0569787676 C2.94962404,0.0569787676 2.68927123,0.350225894 2.68927123,0.716006545 L2.68927123,2.69371248 C2.68927123,3.17436383 2.32203784,3.39383222 1.98842513,3.39383222 C1.65450112,3.39383222 1.2883054,3.17436383 1.2883054,2.69371248 L1.2883054,0.716006545 C1.2883054,0.350225894 1.02857519,0.0569787676 0.65387053,0.0569787676 C0.279684706,0.0569787676 0.0188130587,0.350225894 0.0188130587,0.716006545 L0.0188130587,2.87291906 C0.0188130587,4.04559626 0.930618614,4.56578305 1.98842513,4.56578305 C3.04685425,4.56578305 3.9586598,4.04559626 3.9586598,2.87291906 L3.9586598,0.716006545 C3.9586598,0.350225894 3.69820322,0.0569787676 3.32360233,0.0569787676" id="Fill-20" fill="#FFFFFF" mask="url(#mask-4)"></path>
          </g>
          <path d="M34.047662,21.2530803 L33.6974465,21.2530803 L33.6974465,20.4223172 C33.6974465,20.0564328 33.4369899,19.763497 33.0627004,19.763497 C32.6880995,19.763497 32.4276429,20.0564328 32.4276429,20.4223172 L32.4276429,21.2530803 L32.2813306,21.2530803 C31.8745618,21.2530803 31.6136901,21.4318718 31.6136901,21.8386406 C31.6136901,22.2457208 31.8745618,22.4249274 32.2813306,22.4249274 L32.4276429,22.4249274 L32.4276429,24.9727323 C32.4276429,25.3384092 32.6880995,25.6318638 33.0627004,25.6318638 C33.4369899,25.6318638 33.6974465,25.3384092 33.6974465,24.9727323 L33.6974465,22.4249274 L34.047662,22.4249274 C34.4541196,22.4249274 34.7145761,22.2457208 34.7145761,21.8386406 C34.7145761,21.4318718 34.4541196,21.2530803 34.047662,21.2530803" id="Fill-23" fill="#FFFFFF"></path>
          <g id="Group-27" transform="translate(34.969668, 21.146999)">
            <mask id="mask-6" fill="white">
              <use xlink:href="#path-5"></use>
            </mask>
            <g id="Clip-26"></g>
            <path d="M3.30971823,0.0569787676 C2.93553241,0.0569787676 2.67497206,0.350225894 2.67497206,0.716006545 L2.67497206,2.69371248 C2.67497206,3.17436383 2.30877634,3.39383222 1.9749561,3.39383222 C1.64165469,3.39383222 1.27545897,3.17436383 1.27545897,2.69371248 L1.27545897,0.716006545 C1.27545897,0.350225894 1.01469109,0.0569787676 0.640401501,0.0569787676 C0.266111909,0.0569787676 0.00638170498,0.350225894 0.00638170498,0.716006545 L0.00638170498,2.87291906 C0.00638170498,4.04559626 0.916734515,4.56578305 1.9749561,4.56578305 C3.03338522,4.56578305 3.94519077,4.04559626 3.94519077,2.87291906 L3.94519077,0.716006545 C3.94519077,0.350225894 3.68390405,0.0569787676 3.30971823,0.0569787676" id="Fill-25" fill="#FFFFFF" mask="url(#mask-6)"></path>
          </g>
          <path d="M41.4872669,21.1227067 C41.1285425,21.1227067 40.8190038,21.3583629 40.6079406,21.6111406 C40.5262755,21.4237364 40.3153161,21.2039567 39.9732982,21.2039567 C39.5986973,21.2039567 39.338552,21.4972039 39.338552,21.8629845 L39.338552,24.9726908 C39.338552,25.3383677 39.5986973,25.6318223 39.9732982,25.6318223 C40.3475878,25.6318223 40.6079406,25.3383677 40.6079406,24.9726908 L40.6079406,23.426139 C40.6079406,22.774375 40.7878736,22.6285816 41.3402283,22.4652514 C41.8046919,22.3268255 42.1379933,22.2209826 42.1379933,21.7817345 C42.1379933,21.3830595 41.8124745,21.1227067 41.4872669,21.1227067" id="Fill-28" fill="#FFFFFF"></path>
          <path d="M43.3998691,22.9621009 C43.3998691,22.6769476 43.7253879,22.1967114 44.2219157,22.1967114 C44.7181322,22.1967114 45.0439623,22.6769476 45.0439623,22.9621009 L43.3998691,22.9621009 Z M46.3130396,23.2795259 C46.3130396,22.1726373 45.5075958,21.1227171 44.254395,21.1227171 C42.9518008,21.1227171 42.0322126,22.1967114 42.0322126,23.4173292 C42.0322126,24.695538 42.8871536,25.7127714 44.254395,25.7127714 C45.21466,25.7127714 46.2491188,25.3058988 46.2491188,24.6874441 C46.2491188,24.361614 46.0038123,24.1422494 45.7189703,24.1422494 C45.4263458,24.1422494 45.0439623,24.5408206 44.4169987,24.5408206 C43.6027347,24.5408206 43.3998691,24.1011574 43.3998691,23.8329183 L45.6953113,23.8329183 C46.1016651,23.8329183 46.3130396,23.7265565 46.3130396,23.2795259 Z" id="Fill-30" fill="#FFFFFF"></path>
          <path d="M53.0362644,24.1259371 C52.6948691,24.1259371 52.5648483,24.3949026 51.7428017,24.3949026 C50.8395051,24.3949026 50.3673627,23.6053352 50.3673627,22.6850208 C50.3673627,21.789818 50.7907344,20.9271983 51.856946,20.9271983 C52.3693503,20.9271983 52.6948691,21.2039464 53.0040964,21.2039464 C53.3462181,21.2039464 53.5738841,20.894719 53.5738841,20.5769828 C53.5738841,19.885372 52.621713,19.6578097 51.8240517,19.6578097 C50.0832471,19.6578097 48.9512468,20.9271983 48.9512468,22.6850208 C48.9512468,24.3457168 49.976159,25.7127506 51.7996663,25.7127506 C52.5238602,25.7127506 53.6225511,25.4602842 53.6225511,24.7366092 C53.6225511,24.5647701 53.5572813,24.1259371 53.0362644,24.1259371" id="Fill-32" fill="#FFFFFF"></path>
          <path d="M54.5919684,21.2039775 C54.2170562,21.2039775 53.9561845,21.4972246 53.9561845,21.8630053 L53.9561845,24.9727115 C53.9561845,25.3383884 54.2170562,25.6318431 54.5919684,25.6318431 C54.9661542,25.6318431 55.2262995,25.3383884 55.2262995,24.9727115 L55.2262995,21.8630053 C55.2262995,21.4972246 54.9661542,21.2039775 54.5919684,21.2039775" id="Fill-34" fill="#FFFFFF"></path>
          <path d="M54.5919684,19.3160512 C54.1763793,19.3160512 53.8342577,19.6492489 53.8342577,20.0726205 C53.8342577,20.4957846 54.1763793,20.8297087 54.5919684,20.8297087 C55.0072462,20.8297087 55.3482264,20.4957846 55.3482264,20.0726205 C55.3482264,19.6492489 55.0072462,19.3160512 54.5919684,19.3160512" id="Fill-36" fill="#FFFFFF"></path>
          <path d="M57.8960209,21.2530803 L57.5453903,21.2530803 L57.5453903,20.4223172 C57.5453903,20.0564328 57.2849337,19.763497 56.9110592,19.763497 C56.5363546,19.763497 56.2760018,20.0564328 56.2760018,20.4223172 L56.2760018,21.2530803 L56.1296895,21.2530803 C55.7229207,21.2530803 55.4631905,21.4318718 55.4631905,21.8386406 C55.4631905,22.2457208 55.7229207,22.4249274 56.1296895,22.4249274 L56.2760018,22.4249274 L56.2760018,24.9727323 C56.2760018,25.3384092 56.5363546,25.6318638 56.9110592,25.6318638 C57.2849337,25.6318638 57.5453903,25.3384092 57.5453903,24.9727323 L57.5453903,22.4249274 L57.8960209,22.4249274 C58.3031011,22.4249274 58.5636614,22.2457208 58.5636614,21.8386406 C58.5636614,21.4318718 58.3031011,21.2530803 57.8960209,21.2530803" id="Fill-38" fill="#FFFFFF"></path>
          <path d="M59.4346967,21.2039775 C59.0601996,21.2039775 58.7989128,21.4972246 58.7989128,21.8630053 L58.7989128,24.9727115 C58.7989128,25.3383884 59.0601996,25.6318431 59.4346967,25.6318431 C59.8089863,25.6318431 60.0690278,25.3383884 60.0690278,24.9727115 L60.0690278,21.8630053 C60.0690278,21.4972246 59.8089863,21.2039775 59.4346967,21.2039775" id="Fill-40" fill="#FFFFFF"></path>
          <path d="M59.4346967,19.3160512 C59.0191076,19.3160512 58.677401,19.6492489 58.677401,20.0726205 C58.677401,20.4957846 59.0191076,20.8297087 59.4346967,20.8297087 C59.8492481,20.8297087 60.1913697,20.4957846 60.1913697,20.0726205 C60.1913697,19.6492489 59.8492481,19.3160512 59.4346967,19.3160512" id="Fill-42" fill="#FFFFFF"></path>
          <path d="M61.8682639,22.9621009 C61.8682639,22.6769476 62.1934714,22.1967114 62.6899992,22.1967114 C63.1868383,22.1967114 63.5123571,22.6769476 63.5123571,22.9621009 L61.8682639,22.9621009 Z M64.7814344,23.2795259 C64.7814344,22.1726373 63.9756793,21.1227171 62.7227898,21.1227171 C61.4198843,21.1227171 60.5009187,22.1967114 60.5009187,23.4180556 C60.5009187,24.695538 61.3555484,25.7127714 62.7227898,25.7127714 C63.6833661,25.7127714 64.7163721,25.3058988 64.7163721,24.6874441 C64.7163721,24.361614 64.4726221,24.1422494 64.1877802,24.1422494 C63.8947406,24.1422494 63.5123571,24.5408206 62.8861199,24.5408206 C62.0718558,24.5408206 61.8682639,24.1011574 61.8682639,23.8329183 L64.1629797,23.8329183 C64.5700599,23.8329183 64.7814344,23.7265565 64.7814344,23.2795259 Z" id="Fill-44" fill="#FFFFFF"></path>
          <path d="M66.3530771,22.5136901 C66.3530771,22.3268048 66.5155771,22.2457623 66.6871049,22.2457623 C67.0772709,22.2457623 67.4521831,22.5627722 67.7048571,22.5627722 C68.0052642,22.5627722 68.2331378,22.3433038 68.2331378,22.0259826 C68.2331378,21.3671624 67.2814855,21.122686 66.7676285,21.122686 C65.7508102,21.122686 65.1316292,21.8386822 65.1316292,22.5627722 C65.1316292,23.2469117 65.4818447,23.4911806 66.1336087,23.7594197 C66.8410959,24.0524593 67.1181553,24.0770522 67.1181553,24.3373012 C67.1181553,24.4674258 67.0207176,24.5892489 66.7594309,24.5892489 C66.2141323,24.5892489 65.9377993,24.2231569 65.5391244,24.2231569 C65.2546975,24.2231569 65.018315,24.4757272 65.018315,24.8341403 C65.018315,25.3954191 65.913829,25.7127403 66.7110752,25.7127403 C67.5829302,25.7127403 68.3388769,25.1839408 68.3388769,24.2888418 C68.3388769,22.8971113 66.3530771,23.0105292 66.3530771,22.5136901" id="Fill-46" fill="#FFFFFF"></path>
        </g>
      </g>
    </g>
  </g>
</svg>
