<?xml version="1.0" encoding="UTF-8"?>
<!-- original viewBox="0 0 50 49" -->
<svg width="50px" height="49px" viewBox="0 0 50 49" version="1.1" xmlns="http://www.w3.org/2000/svg" xmlns:xlink="http://www.w3.org/1999/xlink">
  <!-- Generator: Sketch 48.2 (47327) - http://www.bohemiancoding.com/sketch -->
  <desc>Created with Sketch.</desc>
  <defs>
    <polygon id="path-1" points="0 48.2142857 50 48.2142857 50 0 0 0"></polygon>
  </defs>
  <g id="Symbols" stroke="none" stroke-width="1" fill="none" fill-rule="evenodd" opacity="0.504132699">
    <g id="AddYourData">
      <g id="Group-3">
        <g id="Page-1">
          <path d="M39.2857143,45.8333333 C34.6428571,45.8333333 30.952381,42.1428571 30.952381,37.5 C30.952381,32.8571429 34.6428571,29.1666667 39.2857143,29.1666667 C43.9285714,29.1666667 47.6190476,32.8571429 47.6190476,37.5 C47.6190476,42.1428571 43.9285714,45.8333333 39.2857143,45.8333333 M39.2857143,26.7857143 C33.3333333,26.7857143 28.5714286,31.547619 28.5714286,37.5 C28.5714286,43.452381 33.3333333,48.2142857 39.2857143,48.2142857 C45.2380952,48.2142857 50,43.452381 50,37.5 C50,31.547619 45.2380952,26.7857143 39.2857143,26.7857143" id="Fill-1" fill="#3BCAE2"></path>
          <polygon id="Fill-3" fill="#3BCAE2" points="40.4761905 32.7380952 38.0952381 32.7380952 38.0952381 36.3095238 34.5238095 36.3095238 34.5238095 38.6904762 38.0952381 38.6904762 38.0952381 42.2619048 40.4761905 42.2619048 40.4761905 38.6904762 44.047619 38.6904762 44.047619 36.3095238 40.4761905 36.3095238"></polygon>
          <path d="M2.38095238,2.38095238 L40.4761905,2.38095238 L40.4761905,7.14285714 C40.4761905,7.85714286 40,8.33333333 39.2857143,8.33333333 L3.57142857,8.33333333 C2.85714286,8.33333333 2.38095238,7.85714286 2.38095238,7.14285714 L2.38095238,2.38095238 Z M39.2857143,10.7142857 C41.3095238,10.7142857 42.8571429,9.16666667 42.8571429,7.14285714 L42.8571429,0 L0,0 L0,7.14285714 C0,9.16666667 1.54761905,10.7142857 3.57142857,10.7142857 L39.2857143,10.7142857 Z" id="Fill-5" fill="#3BCAE2"></path>
          <mask id="mask-2" fill="white">
            <use xlink:href="#path-1"></use>
          </mask>
          <g id="Clip-8"></g>
          <polygon id="Fill-7" fill="#3BCAE2" mask="url(#mask-2)" points="5.95238095 6.54761905 13.0952381 6.54761905 13.0952381 4.16666667 5.95238095 4.16666667"></polygon>
          <path d="M35.1190476,7.14285714 C36.1047619,7.14285714 36.9047619,6.34404762 36.9047619,5.35714286 C36.9047619,4.3702381 36.1047619,3.57142857 35.1190476,3.57142857 C34.1333333,3.57142857 33.3333333,4.3702381 33.3333333,5.35714286 C33.3333333,6.34404762 34.1333333,7.14285714 35.1190476,7.14285714" id="Fill-9" fill="#3BCAE2" mask="url(#mask-2)"></path>
          <path d="M2.38095238,15.4761905 L40.4761905,15.4761905 L40.4761905,20.2380952 C40.4761905,20.952381 40,21.4285714 39.2857143,21.4285714 L3.57142857,21.4285714 C2.85714286,21.4285714 2.38095238,20.952381 2.38095238,20.2380952 L2.38095238,15.4761905 Z M3.57142857,23.8095238 L39.2857143,23.8095238 C41.3095238,23.8095238 42.8571429,22.2619048 42.8571429,20.2380952 L42.8571429,13.0952381 L0,13.0952381 L0,20.2380952 C0,22.2619048 1.54761905,23.8095238 3.57142857,23.8095238 Z" id="Fill-10" fill="#3BCAE2" mask="url(#mask-2)"></path>
          <polygon id="Fill-11" fill="#3BCAE2" mask="url(#mask-2)" points="5.95238095 19.6428571 13.0952381 19.6428571 13.0952381 17.2619048 5.95238095 17.2619048"></polygon>
          <path d="M35.1190476,20.2380952 C36.1047619,20.2380952 36.9047619,19.4392857 36.9047619,18.452381 C36.9047619,17.4654762 36.1047619,16.6666667 35.1190476,16.6666667 C34.1333333,16.6666667 33.3333333,17.4654762 33.3333333,18.452381 C33.3333333,19.4392857 34.1333333,20.2380952 35.1190476,20.2380952" id="Fill-12" fill="#3BCAE2" mask="url(#mask-2)"></path>
          <polygon id="Fill-13" fill="#3BCAE2" mask="url(#mask-2)" points="5.95238095 32.7380952 13.0952381 32.7380952 13.0952381 30.3571429 5.95238095 30.3571429"></polygon>
          <path d="M2.38095238,33.3333333 L2.38095238,28.5714286 L29.7619048,28.5714286 C30.5952381,27.6190476 31.547619,26.7857143 32.7380952,26.1904762 L0,26.1904762 L0,33.3333333 C0,35.3571429 1.54761905,36.9047619 3.57142857,36.9047619 L26.1904762,36.9047619 C26.1904762,36.0714286 26.3095238,35.2380952 26.547619,34.5238095 L3.57142857,34.5238095 C2.85714286,34.5238095 2.38095238,34.047619 2.38095238,33.3333333" id="Fill-14" fill="#3BCAE2" mask="url(#mask-2)"></path>
        </g>
      </g>
    </g>
  </g>
</svg>
